<svg xmlns="http://www.w3.org/2000/svg" viewBox="0 0 1064.1 1090.26"><defs><style>.cls-1{fill:#3ad813;}</style></defs><title>Element 1</title><g id="Ebene_2" data-name="Ebene 2"><g id="Check_mark_and_Cross" data-name="Check mark and Cross"><path id="Check_mark" data-name="Check mark" class="cls-1" d="M1060.62,69.67c-4.44-19.21-13.3-37.13-27.37-51.78C1023.1,7.33,1008.53,1.27,994,.28c-51.77-3.54-94.59,27.53-134.59,56.11C735.52,144.9,627.11,256.73,533,376c-94.45,119.68-171.09,252.3-230.22,392.4q-30.37-38.07-60.82-76.11c-42.55-53.37-83.24-110.78-132.09-158.63-29-28.41-70.34-12.27-89.1,19C-44.68,661.46,60.46,767.2,119,850.71q70.68,100.8,141.18,201.74c40.41,58.15,108,47.44,133.92-19.78,67.52-175.11,141.83-309.42,257.27-456.34,56.42-71.81,106-125.19,173.19-186.44,53.58-48.82,111.86-92.15,165.55-140.83C1038.17,205.49,1076,136.16,1060.62,69.67Z"/></g></g></svg>