<svg xmlns="http://www.w3.org/2000/svg" viewBox="0 0 114.25 89.68"><defs><style>.cls-1{fill:#fff;}.cls-2{fill:#101010;}.cls-3{fill:#404040;}.cls-4{fill:#09ad0d;}.cls-5{fill:#08ff04;}.cls-6{fill:#00db24;}.cls-7{fill:#ffb700;}.cls-8{fill:#f99a24;}</style></defs><g id="Layer_2" data-name="Layer 2"><g id="icons"><path class="cls-1" d="M91.75,79.35a2.29,2.29,0,0,1-2.29,2.28H11.2a2.29,2.29,0,0,1-2.29-2.28V32.4a2.29,2.29,0,0,1,2.29-2.28H89.46a2.29,2.29,0,0,1,2.29,2.28Z"/><rect class="cls-2" x="14.25" y="33.75" width="72.17" height="44.24"/><polygon class="cls-3" points="86.42 78 14.25 78 86.42 33.75 86.42 78"/><path class="cls-1" d="M97.68,88.1c-1.19,1.58-3.65,1.57-4.91,1.57H7.89A6,6,0,0,1,3,88.1L.34,85c-.63-.73-.65-1.58,2.29-1.58H98c2.92,0,2.92.87,2.29,1.58Z"/><path class="cls-4" d="M96.31,47.58c-1.37,3.61-14.39,5.47-27.66.43S46.88,33,48.25,29.33L56.32,8.07c6.75-4.85,16,4.73,24.49,7.94,8.65,3.28,21.84,2.13,23.57,10.31Z"/><path class="cls-5" d="M74.93,29.81a1.16,1.16,0,0,1-.84-.36L49.23,3.11a1.15,1.15,0,0,1,.84-1.95L85.28,3.24a1.19,1.19,0,0,1,.71.3l26.73,24.23A1.16,1.16,0,0,1,113,29a1.15,1.15,0,0,1-1.08.74Z"/><path class="cls-6" d="M113.49,26.91,86.77,2.68a2.35,2.35,0,0,0-1.42-.59L50.21,0h-.14A2.34,2.34,0,0,0,48,1.33a2.32,2.32,0,0,0,.42,2.57L73.25,30.24a2.27,2.27,0,0,0,1.68.73h0l37,0a2.31,2.31,0,0,0,1.55-4ZM74.93,28.65,50.07,2.31,85.21,4.4l26.73,24.22Z"/><path class="cls-7" d="M100.87,61.87a1.16,1.16,0,0,1-1.16-1.16V36.06L80,16.83a1.15,1.15,0,1,1,1.61-1.65l20.07,19.57a1.16,1.16,0,0,1,.34.83V60.71A1.15,1.15,0,0,1,100.87,61.87Z"/><path class="cls-8" d="M105.92,64.93a3.36,3.36,0,0,1-3.31,3.39l-3.36,0A3.36,3.36,0,0,1,95.86,65l0-4.63c0-1.85,1.43-6.72,3.29-6.74l3.35,0c1.85,0,3.4,4.82,3.42,6.67Z"/></g></g></svg>