<svg xmlns="http://www.w3.org/2000/svg" xmlns:xlink="http://www.w3.org/1999/xlink" viewBox="0 0 522.45 522.45"><defs><style>.cls-1{fill:url(#linear-gradient);}.cls-2{fill:#414042;}</style><linearGradient id="linear-gradient" x1="1.49" y1="261.22" x2="520.96" y2="261.22" gradientUnits="userSpaceOnUse"><stop offset="0" stop-color="#d08529"/><stop offset="0.12" stop-color="#fac43c"/><stop offset="0.26" stop-color="#fef2ae"/><stop offset="0.36" stop-color="#fcf26f"/><stop offset="0.49" stop-color="#fbc636"/><stop offset="0.62" stop-color="#edb62c"/><stop offset="0.75" stop-color="#fbd95d"/><stop offset="0.87" stop-color="#d08429"/><stop offset="1" stop-color="#f9c23a"/></linearGradient></defs><title>Element 1</title><g id="Ebene_2" data-name="Ebene 2"><g id="Layer_3" data-name="Layer 3"><polygon class="cls-1" points="520.96 261.23 500.24 280.05 517.8 301.86 494.39 317.21 508.31 341.51 482.78 352.99 492.7 379.17 465.67 386.5 471.37 413.91 443.53 416.92 444.89 444.89 416.92 443.53 413.91 471.37 386.49 465.67 379.17 492.7 352.99 482.78 341.51 508.31 317.21 494.39 301.86 517.8 280.05 500.24 261.23 520.96 242.4 500.24 220.59 517.8 205.24 494.39 180.94 508.31 169.46 482.78 143.28 492.7 135.96 465.67 108.54 471.37 105.53 443.53 77.56 444.89 78.92 416.92 51.08 413.91 56.78 386.49 29.75 379.17 39.67 352.99 14.13 341.51 28.06 317.21 4.65 301.86 22.21 280.05 1.49 261.23 22.21 242.4 4.65 220.59 28.06 205.24 14.14 180.94 39.67 169.46 29.75 143.28 56.78 135.96 51.08 108.54 78.92 105.53 77.56 77.56 105.53 78.92 108.54 51.08 135.96 56.78 143.28 29.75 169.46 39.67 180.94 14.13 205.24 28.06 220.59 4.65 242.4 22.21 261.23 1.49 280.05 22.21 301.86 4.65 317.21 28.06 341.51 14.14 352.99 39.67 379.17 29.75 386.5 56.78 413.91 51.08 416.92 78.92 444.89 77.56 443.53 105.53 471.37 108.54 465.67 135.96 492.7 143.28 482.78 169.46 508.31 180.94 494.39 205.24 517.8 220.59 500.24 242.4 520.96 261.23"/><path class="cls-2" d="M261.23,522.45,242.29,501.6l-21.93,17.67-15.45-23.54-24.43,14L168.94,484,142.6,494l-7.36-27.18-27.58,5.73-3-28-28.13,1.37,1.36-28.13-28-3,5.73-27.57-27.19-7.36,10-26.34L12.72,342l14-24.44L3.18,302.09l17.67-21.93L0,261.23l20.85-18.94L3.18,220.36l23.54-15.44-14-24.44,25.69-11.54-10-26.34,27.18-7.36-5.73-27.58,28-3L76.51,76.51l28.13,1.36,3-28,27.57,5.73,7.36-27.18,26.34,10,11.54-25.69,24.44,14L220.36,3.18l21.93,17.67L261.23,0l18.93,20.85L302.09,3.18l15.45,23.54,24.43-14,11.54,25.69,26.34-10,7.36,27.18,27.58-5.73,3,28,28.13-1.37-1.36,28.13,28,3-5.73,27.57L494,142.6l-10,26.34,25.69,11.54-14,24.44,23.54,15.44-17.66,21.93,20.84,18.94-20.84,18.93,17.66,21.93-23.54,15.45,14,24.43L484,353.51l10,26.34-27.18,7.36,5.73,27.57-28,3,1.37,28.13-28.13-1.36-3,28-27.57-5.73L379.85,494l-26.34-10L342,509.73l-24.44-14-15.44,23.54L280.16,501.6Zm-18.72-23.59,18.72,20.62,18.71-20.62,21.68,17.47,15.27-23.27,24.16,13.84,11.41-25.39,26,9.86,7.28-26.87L413,470.17l3-27.68,27.8,1.35L442.49,416l27.67-3-5.66-27.25,26.87-7.28-9.86-26,25.39-11.41L493.06,316.9l23.27-15.28-17.47-21.68,20.62-18.71-20.62-18.72,17.47-21.68-23.27-15.27L506.9,181.4,481.51,170l9.86-26-26.87-7.28,5.67-27.26-27.68-3,1.35-27.8L416,80l-3-27.68L385.78,58,378.5,31.08l-26,9.86L341.05,15.55,316.9,29.39,301.62,6.12,279.94,23.59,261.23,3,242.51,23.59,220.83,6.12,205.56,29.39,181.4,15.55,170,40.94l-26-9.86L136.68,58l-27.26-5.67-3,27.68-27.8-1.35L80,106.42l-27.68,3L58,136.67,31.08,144l9.86,26L15.55,181.4l13.84,24.15L6.12,220.83l17.47,21.68L3,261.23l20.62,18.71L6.12,301.62,29.39,316.9,15.55,341.05l25.39,11.41-9.86,26L58,385.77,52.28,413,80,416l-1.35,27.8,27.81-1.34,3,27.67,27.25-5.66L144,491.37l26-9.86L181.4,506.9l24.15-13.84,15.28,23.27Z"/><path class="cls-2" d="M261.23,481.47a220.67,220.67,0,0,1-156-376.7A220.67,220.67,0,0,1,417.26,416.84,219.25,219.25,0,0,1,261.23,481.47Zm0-439.32c-120.57,0-218.66,98.09-218.66,218.65s98.09,218.66,218.66,218.66S479.88,381.37,479.88,260.8,381.79,42.15,261.23,42.15Z"/><path class="cls-2" d="M261.23,470.64c-115.6,0-209.64-94.05-209.64-209.64s94-209.63,209.64-209.63,209.63,94,209.63,209.63S376.82,470.64,261.23,470.64Zm0-411.92C149.69,58.72,58.94,149.46,58.94,261s90.75,202.29,202.29,202.29S463.51,372.54,463.51,261,372.77,58.72,261.23,58.72Z"/><path class="cls-2" d="M227.65,235.7a27,27,0,0,0-1.4-6.06,7.61,7.61,0,0,0-2.21-3.33,4.71,4.71,0,0,0-2.94-1,4.76,4.76,0,0,0-2.95,1,7.5,7.5,0,0,0-2.18,3.33,27.19,27.19,0,0,0-1.36,6.06,74.11,74.11,0,0,0-.47,9.2v22a76.25,76.25,0,0,0,.47,9.36,25.81,25.81,0,0,0,1.38,6,7.54,7.54,0,0,0,2.22,3.3,4.77,4.77,0,0,0,3,1,4.65,4.65,0,0,0,2.91-1,7.69,7.69,0,0,0,2.2-3.3,25.81,25.81,0,0,0,1.38-6,78.3,78.3,0,0,0,.47-9.36v-22A71.77,71.77,0,0,0,227.65,235.7Zm48.86,0a27,27,0,0,0-1.4-6.06,7.61,7.61,0,0,0-2.21-3.33,4.84,4.84,0,0,0-5.89,0,7.5,7.5,0,0,0-2.18,3.33,26.65,26.65,0,0,0-1.36,6.06,73.88,73.88,0,0,0-.48,9.2v22a76,76,0,0,0,.48,9.36,24.84,24.84,0,0,0,1.38,6,7.46,7.46,0,0,0,2.22,3.3,4.77,4.77,0,0,0,3,1,4.6,4.6,0,0,0,2.9-1,7.62,7.62,0,0,0,2.21-3.3,25.81,25.81,0,0,0,1.38-6,78.3,78.3,0,0,0,.47-9.36v-22A71.77,71.77,0,0,0,276.51,235.7Zm0,0a27,27,0,0,0-1.4-6.06,7.61,7.61,0,0,0-2.21-3.33,4.84,4.84,0,0,0-5.89,0,7.5,7.5,0,0,0-2.18,3.33,26.65,26.65,0,0,0-1.36,6.06,73.88,73.88,0,0,0-.48,9.2v22a76,76,0,0,0,.48,9.36,24.84,24.84,0,0,0,1.38,6,7.46,7.46,0,0,0,2.22,3.3,4.77,4.77,0,0,0,3,1,4.6,4.6,0,0,0,2.9-1,7.62,7.62,0,0,0,2.21-3.3,25.81,25.81,0,0,0,1.38-6,78.3,78.3,0,0,0,.47-9.36v-22A71.77,71.77,0,0,0,276.51,235.7Zm-48.86,0a27,27,0,0,0-1.4-6.06,7.61,7.61,0,0,0-2.21-3.33,4.71,4.71,0,0,0-2.94-1,4.76,4.76,0,0,0-2.95,1,7.5,7.5,0,0,0-2.18,3.33,27.19,27.19,0,0,0-1.36,6.06,74.11,74.11,0,0,0-.47,9.2v22a76.25,76.25,0,0,0,.47,9.36,25.81,25.81,0,0,0,1.38,6,7.54,7.54,0,0,0,2.22,3.3,4.77,4.77,0,0,0,3,1,4.65,4.65,0,0,0,2.91-1,7.69,7.69,0,0,0,2.2-3.3,25.81,25.81,0,0,0,1.38-6,78.3,78.3,0,0,0,.47-9.36v-22A71.77,71.77,0,0,0,227.65,235.7Zm0,0a27,27,0,0,0-1.4-6.06,7.61,7.61,0,0,0-2.21-3.33,4.71,4.71,0,0,0-2.94-1,4.76,4.76,0,0,0-2.95,1,7.5,7.5,0,0,0-2.18,3.33,27.19,27.19,0,0,0-1.36,6.06,74.11,74.11,0,0,0-.47,9.2v22a76.25,76.25,0,0,0,.47,9.36,25.81,25.81,0,0,0,1.38,6,7.54,7.54,0,0,0,2.22,3.3,4.77,4.77,0,0,0,3,1,4.65,4.65,0,0,0,2.91-1,7.69,7.69,0,0,0,2.2-3.3,25.81,25.81,0,0,0,1.38-6,78.3,78.3,0,0,0,.47-9.36v-22A71.77,71.77,0,0,0,227.65,235.7Zm48.86,0a27,27,0,0,0-1.4-6.06,7.61,7.61,0,0,0-2.21-3.33,4.84,4.84,0,0,0-5.89,0,7.5,7.5,0,0,0-2.18,3.33,26.65,26.65,0,0,0-1.36,6.06,73.88,73.88,0,0,0-.48,9.2v22a76,76,0,0,0,.48,9.36,24.84,24.84,0,0,0,1.38,6,7.46,7.46,0,0,0,2.22,3.3,4.77,4.77,0,0,0,3,1,4.6,4.6,0,0,0,2.9-1,7.62,7.62,0,0,0,2.21-3.3,25.81,25.81,0,0,0,1.38-6,78.3,78.3,0,0,0,.47-9.36v-22A71.77,71.77,0,0,0,276.51,235.7ZM322.26,225a9.32,9.32,0,0,0-.8-2.39,4.53,4.53,0,0,0-1.38-1.63,3.32,3.32,0,0,0-2-.6,3.22,3.22,0,0,0-1.94.6,4.85,4.85,0,0,0-1.38,1.63A8.62,8.62,0,0,0,314,225a14.51,14.51,0,0,0-.27,2.85v4.83a13.77,13.77,0,0,0,.27,2.77,8.57,8.57,0,0,0,.82,2.35,4.61,4.61,0,0,0,1.41,1.63,3.33,3.33,0,0,0,2,.6,3.22,3.22,0,0,0,1.94-.6,4.36,4.36,0,0,0,1.34-1.63,9.68,9.68,0,0,0,.78-2.35,13.77,13.77,0,0,0,.27-2.77v-4.83A14.51,14.51,0,0,0,322.26,225Zm0,0a9.32,9.32,0,0,0-.8-2.39,4.53,4.53,0,0,0-1.38-1.63,3.32,3.32,0,0,0-2-.6,3.22,3.22,0,0,0-1.94.6,4.85,4.85,0,0,0-1.38,1.63A8.62,8.62,0,0,0,314,225a14.51,14.51,0,0,0-.27,2.85v4.83a13.77,13.77,0,0,0,.27,2.77,8.57,8.57,0,0,0,.82,2.35,4.61,4.61,0,0,0,1.41,1.63,3.33,3.33,0,0,0,2,.6,3.22,3.22,0,0,0,1.94-.6,4.36,4.36,0,0,0,1.34-1.63,9.68,9.68,0,0,0,.78-2.35,13.77,13.77,0,0,0,.27-2.77v-4.83A14.51,14.51,0,0,0,322.26,225ZM276.51,235.7a27,27,0,0,0-1.4-6.06,7.61,7.61,0,0,0-2.21-3.33,4.84,4.84,0,0,0-5.89,0,7.5,7.5,0,0,0-2.18,3.33,26.65,26.65,0,0,0-1.36,6.06,73.88,73.88,0,0,0-.48,9.2v22a76,76,0,0,0,.48,9.36,24.84,24.84,0,0,0,1.38,6,7.46,7.46,0,0,0,2.22,3.3,4.77,4.77,0,0,0,3,1,4.6,4.6,0,0,0,2.9-1,7.62,7.62,0,0,0,2.21-3.3,25.81,25.81,0,0,0,1.38-6,78.3,78.3,0,0,0,.47-9.36v-22A71.77,71.77,0,0,0,276.51,235.7Zm-48.86,0a27,27,0,0,0-1.4-6.06,7.61,7.61,0,0,0-2.21-3.33,4.71,4.71,0,0,0-2.94-1,4.76,4.76,0,0,0-2.95,1,7.5,7.5,0,0,0-2.18,3.33,27.19,27.19,0,0,0-1.36,6.06,74.11,74.11,0,0,0-.47,9.2v22a76.25,76.25,0,0,0,.47,9.36,25.81,25.81,0,0,0,1.38,6,7.54,7.54,0,0,0,2.22,3.3,4.77,4.77,0,0,0,3,1,4.65,4.65,0,0,0,2.91-1,7.69,7.69,0,0,0,2.2-3.3,25.81,25.81,0,0,0,1.38-6,78.3,78.3,0,0,0,.47-9.36v-22A71.77,71.77,0,0,0,227.65,235.7Zm0,0a27,27,0,0,0-1.4-6.06,7.61,7.61,0,0,0-2.21-3.33,4.71,4.71,0,0,0-2.94-1,4.76,4.76,0,0,0-2.95,1,7.5,7.5,0,0,0-2.18,3.33,27.19,27.19,0,0,0-1.36,6.06,74.11,74.11,0,0,0-.47,9.2v22a76.25,76.25,0,0,0,.47,9.36,25.81,25.81,0,0,0,1.38,6,7.54,7.54,0,0,0,2.22,3.3,4.77,4.77,0,0,0,3,1,4.65,4.65,0,0,0,2.91-1,7.69,7.69,0,0,0,2.2-3.3,25.81,25.81,0,0,0,1.38-6,78.3,78.3,0,0,0,.47-9.36v-22A71.77,71.77,0,0,0,227.65,235.7Zm48.86,0a27,27,0,0,0-1.4-6.06,7.61,7.61,0,0,0-2.21-3.33,4.84,4.84,0,0,0-5.89,0,7.5,7.5,0,0,0-2.18,3.33,26.65,26.65,0,0,0-1.36,6.06,73.88,73.88,0,0,0-.48,9.2v22a76,76,0,0,0,.48,9.36,24.84,24.84,0,0,0,1.38,6,7.46,7.46,0,0,0,2.22,3.3,4.77,4.77,0,0,0,3,1,4.6,4.6,0,0,0,2.9-1,7.62,7.62,0,0,0,2.21-3.3,25.81,25.81,0,0,0,1.38-6,78.3,78.3,0,0,0,.47-9.36v-22A71.77,71.77,0,0,0,276.51,235.7ZM322.26,225a9.32,9.32,0,0,0-.8-2.39,4.53,4.53,0,0,0-1.38-1.63,3.32,3.32,0,0,0-2-.6,3.22,3.22,0,0,0-1.94.6,4.85,4.85,0,0,0-1.38,1.63A8.62,8.62,0,0,0,314,225a14.51,14.51,0,0,0-.27,2.85v4.83a13.77,13.77,0,0,0,.27,2.77,8.57,8.57,0,0,0,.82,2.35,4.61,4.61,0,0,0,1.41,1.63,3.33,3.33,0,0,0,2,.6,3.22,3.22,0,0,0,1.94-.6,4.36,4.36,0,0,0,1.34-1.63,9.68,9.68,0,0,0,.78-2.35,13.77,13.77,0,0,0,.27-2.77v-4.83A14.51,14.51,0,0,0,322.26,225Zm28.55,51.47a8.62,8.62,0,0,0-.82-2.39,4.7,4.7,0,0,0-1.41-1.63,3.49,3.49,0,0,0-3.91,0,4.68,4.68,0,0,0-1.4,1.63,8.31,8.31,0,0,0-.82,2.39,14.19,14.19,0,0,0-.27,2.79v4.83a11.25,11.25,0,0,0,.35,2.8,9,9,0,0,0,1,2.38,5.24,5.24,0,0,0,1.44,1.63,3,3,0,0,0,1.77.6,3.93,3.93,0,0,0,2.27-.6,3.84,3.84,0,0,0,1.33-1.63,7.36,7.36,0,0,0,.62-2.38,25.31,25.31,0,0,0,.15-2.8v-4.83A14.19,14.19,0,0,0,350.81,276.44Zm0,0a8.62,8.62,0,0,0-.82-2.39,4.7,4.7,0,0,0-1.41-1.63,3.49,3.49,0,0,0-3.91,0,4.68,4.68,0,0,0-1.4,1.63,8.31,8.31,0,0,0-.82,2.39,14.19,14.19,0,0,0-.27,2.79v4.83a11.25,11.25,0,0,0,.35,2.8,9,9,0,0,0,1,2.38,5.24,5.24,0,0,0,1.44,1.63,3,3,0,0,0,1.77.6,3.93,3.93,0,0,0,2.27-.6,3.84,3.84,0,0,0,1.33-1.63,7.36,7.36,0,0,0,.62-2.38,25.31,25.31,0,0,0,.15-2.8v-4.83A14.19,14.19,0,0,0,350.81,276.44Zm-74.3-40.74a27,27,0,0,0-1.4-6.06,7.61,7.61,0,0,0-2.21-3.33,4.84,4.84,0,0,0-5.89,0,7.5,7.5,0,0,0-2.18,3.33,26.65,26.65,0,0,0-1.36,6.06,73.88,73.88,0,0,0-.48,9.2v22a76,76,0,0,0,.48,9.36,24.84,24.84,0,0,0,1.38,6,7.46,7.46,0,0,0,2.22,3.3,4.77,4.77,0,0,0,3,1,4.6,4.6,0,0,0,2.9-1,7.62,7.62,0,0,0,2.21-3.3,25.81,25.81,0,0,0,1.38-6,78.3,78.3,0,0,0,.47-9.36v-22A71.77,71.77,0,0,0,276.51,235.7Zm-48.86,0a27,27,0,0,0-1.4-6.06,7.61,7.61,0,0,0-2.21-3.33,4.71,4.71,0,0,0-2.94-1,4.76,4.76,0,0,0-2.95,1,7.5,7.5,0,0,0-2.18,3.33,27.19,27.19,0,0,0-1.36,6.06,74.11,74.11,0,0,0-.47,9.2v22a76.25,76.25,0,0,0,.47,9.36,25.81,25.81,0,0,0,1.38,6,7.54,7.54,0,0,0,2.22,3.3,4.77,4.77,0,0,0,3,1,4.65,4.65,0,0,0,2.91-1,7.69,7.69,0,0,0,2.2-3.3,25.81,25.81,0,0,0,1.38-6,78.3,78.3,0,0,0,.47-9.36v-22A71.77,71.77,0,0,0,227.65,235.7ZM322.26,225a9.32,9.32,0,0,0-.8-2.39,4.53,4.53,0,0,0-1.38-1.63,3.32,3.32,0,0,0-2-.6,3.22,3.22,0,0,0-1.94.6,4.85,4.85,0,0,0-1.38,1.63A8.62,8.62,0,0,0,314,225a14.51,14.51,0,0,0-.27,2.85v4.83a13.77,13.77,0,0,0,.27,2.77,8.57,8.57,0,0,0,.82,2.35,4.61,4.61,0,0,0,1.41,1.63,3.33,3.33,0,0,0,2,.6,3.22,3.22,0,0,0,1.94-.6,4.36,4.36,0,0,0,1.34-1.63,9.68,9.68,0,0,0,.78-2.35,13.77,13.77,0,0,0,.27-2.77v-4.83A14.51,14.51,0,0,0,322.26,225ZM227.65,235.7a27,27,0,0,0-1.4-6.06,7.61,7.61,0,0,0-2.21-3.33,4.71,4.71,0,0,0-2.94-1,4.76,4.76,0,0,0-2.95,1,7.5,7.5,0,0,0-2.18,3.33,27.19,27.19,0,0,0-1.36,6.06,74.11,74.11,0,0,0-.47,9.2v22a76.25,76.25,0,0,0,.47,9.36,25.81,25.81,0,0,0,1.38,6,7.54,7.54,0,0,0,2.22,3.3,4.77,4.77,0,0,0,3,1,4.65,4.65,0,0,0,2.91-1,7.69,7.69,0,0,0,2.2-3.3,25.81,25.81,0,0,0,1.38-6,78.3,78.3,0,0,0,.47-9.36v-22A71.77,71.77,0,0,0,227.65,235.7Zm48.86,0a27,27,0,0,0-1.4-6.06,7.61,7.61,0,0,0-2.21-3.33,4.84,4.84,0,0,0-5.89,0,7.5,7.5,0,0,0-2.18,3.33,26.65,26.65,0,0,0-1.36,6.06,73.88,73.88,0,0,0-.48,9.2v22a76,76,0,0,0,.48,9.36,24.84,24.84,0,0,0,1.38,6,7.46,7.46,0,0,0,2.22,3.3,4.77,4.77,0,0,0,3,1,4.6,4.6,0,0,0,2.9-1,7.62,7.62,0,0,0,2.21-3.3,25.81,25.81,0,0,0,1.38-6,78.3,78.3,0,0,0,.47-9.36v-22A71.77,71.77,0,0,0,276.51,235.7ZM322.26,225a9.32,9.32,0,0,0-.8-2.39,4.53,4.53,0,0,0-1.38-1.63,3.32,3.32,0,0,0-2-.6,3.22,3.22,0,0,0-1.94.6,4.85,4.85,0,0,0-1.38,1.63A8.62,8.62,0,0,0,314,225a14.51,14.51,0,0,0-.27,2.85v4.83a13.77,13.77,0,0,0,.27,2.77,8.57,8.57,0,0,0,.82,2.35,4.61,4.61,0,0,0,1.41,1.63,3.33,3.33,0,0,0,2,.6,3.22,3.22,0,0,0,1.94-.6,4.36,4.36,0,0,0,1.34-1.63,9.68,9.68,0,0,0,.78-2.35,13.77,13.77,0,0,0,.27-2.77v-4.83A14.51,14.51,0,0,0,322.26,225Zm28.55,51.47a8.62,8.62,0,0,0-.82-2.39,4.7,4.7,0,0,0-1.41-1.63,3.49,3.49,0,0,0-3.91,0,4.68,4.68,0,0,0-1.4,1.63,8.31,8.31,0,0,0-.82,2.39,14.19,14.19,0,0,0-.27,2.79v4.83a11.25,11.25,0,0,0,.35,2.8,9,9,0,0,0,1,2.38,5.24,5.24,0,0,0,1.44,1.63,3,3,0,0,0,1.77.6,3.93,3.93,0,0,0,2.27-.6,3.84,3.84,0,0,0,1.33-1.63,7.36,7.36,0,0,0,.62-2.38,25.31,25.31,0,0,0,.15-2.8v-4.83A14.19,14.19,0,0,0,350.81,276.44Zm0,0a8.62,8.62,0,0,0-.82-2.39,4.7,4.7,0,0,0-1.41-1.63,3.49,3.49,0,0,0-3.91,0,4.68,4.68,0,0,0-1.4,1.63,8.31,8.31,0,0,0-.82,2.39,14.19,14.19,0,0,0-.27,2.79v4.83a11.25,11.25,0,0,0,.35,2.8,9,9,0,0,0,1,2.38,5.24,5.24,0,0,0,1.44,1.63,3,3,0,0,0,1.77.6,3.93,3.93,0,0,0,2.27-.6,3.84,3.84,0,0,0,1.33-1.63,7.36,7.36,0,0,0,.62-2.38,25.31,25.31,0,0,0,.15-2.8v-4.83A14.19,14.19,0,0,0,350.81,276.44Zm-74.3-40.74a27,27,0,0,0-1.4-6.06,7.61,7.61,0,0,0-2.21-3.33,4.84,4.84,0,0,0-5.89,0,7.5,7.5,0,0,0-2.18,3.33,26.65,26.65,0,0,0-1.36,6.06,73.88,73.88,0,0,0-.48,9.2v22a76,76,0,0,0,.48,9.36,24.84,24.84,0,0,0,1.38,6,7.46,7.46,0,0,0,2.22,3.3,4.77,4.77,0,0,0,3,1,4.6,4.6,0,0,0,2.9-1,7.62,7.62,0,0,0,2.21-3.3,25.81,25.81,0,0,0,1.38-6,78.3,78.3,0,0,0,.47-9.36v-22A71.77,71.77,0,0,0,276.51,235.7Zm-48.86,0a27,27,0,0,0-1.4-6.06,7.61,7.61,0,0,0-2.21-3.33,4.71,4.71,0,0,0-2.94-1,4.76,4.76,0,0,0-2.95,1,7.5,7.5,0,0,0-2.18,3.33,27.19,27.19,0,0,0-1.36,6.06,74.11,74.11,0,0,0-.47,9.2v22a76.25,76.25,0,0,0,.47,9.36,25.81,25.81,0,0,0,1.38,6,7.54,7.54,0,0,0,2.22,3.3,4.77,4.77,0,0,0,3,1,4.65,4.65,0,0,0,2.91-1,7.69,7.69,0,0,0,2.2-3.3,25.81,25.81,0,0,0,1.38-6,78.3,78.3,0,0,0,.47-9.36v-22A71.77,71.77,0,0,0,227.65,235.7ZM322.26,225a9.32,9.32,0,0,0-.8-2.39,4.53,4.53,0,0,0-1.38-1.63,3.32,3.32,0,0,0-2-.6,3.22,3.22,0,0,0-1.94.6,4.85,4.85,0,0,0-1.38,1.63A8.62,8.62,0,0,0,314,225a14.51,14.51,0,0,0-.27,2.85v4.83a13.77,13.77,0,0,0,.27,2.77,8.57,8.57,0,0,0,.82,2.35,4.61,4.61,0,0,0,1.41,1.63,3.33,3.33,0,0,0,2,.6,3.22,3.22,0,0,0,1.94-.6,4.36,4.36,0,0,0,1.34-1.63,9.68,9.68,0,0,0,.78-2.35,13.77,13.77,0,0,0,.27-2.77v-4.83A14.51,14.51,0,0,0,322.26,225ZM227.65,235.7a27,27,0,0,0-1.4-6.06,7.61,7.61,0,0,0-2.21-3.33,4.71,4.71,0,0,0-2.94-1,4.76,4.76,0,0,0-2.95,1,7.5,7.5,0,0,0-2.18,3.33,27.19,27.19,0,0,0-1.36,6.06,74.11,74.11,0,0,0-.47,9.2v22a76.25,76.25,0,0,0,.47,9.36,25.81,25.81,0,0,0,1.38,6,7.54,7.54,0,0,0,2.22,3.3,4.77,4.77,0,0,0,3,1,4.65,4.65,0,0,0,2.91-1,7.69,7.69,0,0,0,2.2-3.3,25.81,25.81,0,0,0,1.38-6,78.3,78.3,0,0,0,.47-9.36v-22A71.77,71.77,0,0,0,227.65,235.7Zm48.86,0a27,27,0,0,0-1.4-6.06,7.61,7.61,0,0,0-2.21-3.33,4.84,4.84,0,0,0-5.89,0,7.5,7.5,0,0,0-2.18,3.33,26.65,26.65,0,0,0-1.36,6.06,73.88,73.88,0,0,0-.48,9.2v22a76,76,0,0,0,.48,9.36,24.84,24.84,0,0,0,1.38,6,7.46,7.46,0,0,0,2.22,3.3,4.77,4.77,0,0,0,3,1,4.6,4.6,0,0,0,2.9-1,7.62,7.62,0,0,0,2.21-3.3,25.81,25.81,0,0,0,1.38-6,78.3,78.3,0,0,0,.47-9.36v-22A71.77,71.77,0,0,0,276.51,235.7ZM322.26,225a9.32,9.32,0,0,0-.8-2.39,4.53,4.53,0,0,0-1.38-1.63,3.32,3.32,0,0,0-2-.6,3.22,3.22,0,0,0-1.94.6,4.85,4.85,0,0,0-1.38,1.63A8.62,8.62,0,0,0,314,225a14.51,14.51,0,0,0-.27,2.85v4.83a13.77,13.77,0,0,0,.27,2.77,8.57,8.57,0,0,0,.82,2.35,4.61,4.61,0,0,0,1.41,1.63,3.33,3.33,0,0,0,2,.6,3.22,3.22,0,0,0,1.94-.6,4.36,4.36,0,0,0,1.34-1.63,9.68,9.68,0,0,0,.78-2.35,13.77,13.77,0,0,0,.27-2.77v-4.83A14.51,14.51,0,0,0,322.26,225Zm28.55,51.47a8.62,8.62,0,0,0-.82-2.39,4.7,4.7,0,0,0-1.41-1.63,3.49,3.49,0,0,0-3.91,0,4.68,4.68,0,0,0-1.4,1.63,8.31,8.31,0,0,0-.82,2.39,14.19,14.19,0,0,0-.27,2.79v4.83a11.25,11.25,0,0,0,.35,2.8,9,9,0,0,0,1,2.38,5.24,5.24,0,0,0,1.44,1.63,3,3,0,0,0,1.77.6,3.93,3.93,0,0,0,2.27-.6,3.84,3.84,0,0,0,1.33-1.63,7.36,7.36,0,0,0,.62-2.38,25.31,25.31,0,0,0,.15-2.8v-4.83A14.19,14.19,0,0,0,350.81,276.44Zm0,0a8.62,8.62,0,0,0-.82-2.39,4.7,4.7,0,0,0-1.41-1.63,3.49,3.49,0,0,0-3.91,0,4.68,4.68,0,0,0-1.4,1.63,8.31,8.31,0,0,0-.82,2.39,14.19,14.19,0,0,0-.27,2.79v4.83a11.25,11.25,0,0,0,.35,2.8,9,9,0,0,0,1,2.38,5.24,5.24,0,0,0,1.44,1.63,3,3,0,0,0,1.77.6,3.93,3.93,0,0,0,2.27-.6,3.84,3.84,0,0,0,1.33-1.63,7.36,7.36,0,0,0,.62-2.38,25.31,25.31,0,0,0,.15-2.8v-4.83A14.19,14.19,0,0,0,350.81,276.44Zm-74.3-40.74a27,27,0,0,0-1.4-6.06,7.61,7.61,0,0,0-2.21-3.33,4.84,4.84,0,0,0-5.89,0,7.5,7.5,0,0,0-2.18,3.33,26.65,26.65,0,0,0-1.36,6.06,73.88,73.88,0,0,0-.48,9.2v22a76,76,0,0,0,.48,9.36,24.84,24.84,0,0,0,1.38,6,7.46,7.46,0,0,0,2.22,3.3,4.77,4.77,0,0,0,3,1,4.6,4.6,0,0,0,2.9-1,7.62,7.62,0,0,0,2.21-3.3,25.81,25.81,0,0,0,1.38-6,78.3,78.3,0,0,0,.47-9.36v-22A71.77,71.77,0,0,0,276.51,235.7Zm-48.86,0a27,27,0,0,0-1.4-6.06,7.61,7.61,0,0,0-2.21-3.33,4.71,4.71,0,0,0-2.94-1,4.76,4.76,0,0,0-2.95,1,7.5,7.5,0,0,0-2.18,3.33,27.19,27.19,0,0,0-1.36,6.06,74.11,74.11,0,0,0-.47,9.2v22a76.25,76.25,0,0,0,.47,9.36,25.81,25.81,0,0,0,1.38,6,7.54,7.54,0,0,0,2.22,3.3,4.77,4.77,0,0,0,3,1,4.65,4.65,0,0,0,2.91-1,7.69,7.69,0,0,0,2.2-3.3,25.81,25.81,0,0,0,1.38-6,78.3,78.3,0,0,0,.47-9.36v-22A71.77,71.77,0,0,0,227.65,235.7ZM322.26,225a9.32,9.32,0,0,0-.8-2.39,4.53,4.53,0,0,0-1.38-1.63,3.32,3.32,0,0,0-2-.6,3.22,3.22,0,0,0-1.94.6,4.85,4.85,0,0,0-1.38,1.63A8.62,8.62,0,0,0,314,225a14.51,14.51,0,0,0-.27,2.85v4.83a13.77,13.77,0,0,0,.27,2.77,8.57,8.57,0,0,0,.82,2.35,4.61,4.61,0,0,0,1.41,1.63,3.33,3.33,0,0,0,2,.6,3.22,3.22,0,0,0,1.94-.6,4.36,4.36,0,0,0,1.34-1.63,9.68,9.68,0,0,0,.78-2.35,13.77,13.77,0,0,0,.27-2.77v-4.83A14.51,14.51,0,0,0,322.26,225Zm-61-93.15A125.67,125.67,0,1,0,386.89,257.49,125.66,125.66,0,0,0,261.23,131.82ZM324,210.43a12.66,12.66,0,0,1,4.16,4.08,19.55,19.55,0,0,1,2.47,6,31.12,31.12,0,0,1,.83,7.31v4.83a30.79,30.79,0,0,1-.83,7.25,19.07,19.07,0,0,1-2.47,6,12.9,12.9,0,0,1-4.14,4,11.07,11.07,0,0,1-5.83,1.5,11.22,11.22,0,0,1-5.85-1.5,13.29,13.29,0,0,1-4.2-4,18.9,18.9,0,0,1-2.53-6,30.26,30.26,0,0,1-.85-7.25v-4.83a30.58,30.58,0,0,1,.85-7.31,19.6,19.6,0,0,1,2.51-6,12.91,12.91,0,0,1,4.18-4.08,11.12,11.12,0,0,1,5.81-1.5A11.26,11.26,0,0,1,324,210.43Zm-69.1-52.73,6.32-12.78,6.31,12.78,14.11,2.05-10.21,10,2.41,14-12.62-6.63-12.63,6.63,2.41-14-10.21-10Zm-42.77,9,3.49-7.06,3.49,7.06,7.79,1.13-5.64,5.5,1.33,7.76-7-3.66-7,3.66,1.33-7.76-5.64-5.5Zm-22.1,135H176.12V234.1l-13.68,6.09V224.12l26.32-13.87H190Zm31.08,45.48-3.49,7.06-3.49-7.06L206.35,346l5.64-5.5-1.33-7.76,7,3.66,7-3.66-1.33,7.76,5.64,5.5Zm15.1-53.64a19.33,19.33,0,0,1-6.59,7.09,16,16,0,0,1-8.45,2.33,16.18,16.18,0,0,1-8.51-2.33,19.29,19.29,0,0,1-6.61-7.09,41.22,41.22,0,0,1-4.3-12,83.32,83.32,0,0,1-1.55-17.17v-16.7a84.14,84.14,0,0,1,1.53-17.13A40.56,40.56,0,0,1,206,218.41a19.45,19.45,0,0,1,6.59-7.1,16.64,16.64,0,0,1,16.95,0,19.34,19.34,0,0,1,6.62,7.1,41.11,41.11,0,0,1,4.3,12.05A83.32,83.32,0,0,1,242,247.59v16.7a84.14,84.14,0,0,1-1.53,17.17A41,41,0,0,1,236.22,293.48Zm31.13,62.63L261,368.89l-6.32-12.78-14.11-2.05,10.21-10-2.41-14.05L261,336.69l12.62-6.64-2.41,14.05,10.21,10Zm23.53-91.82a84.92,84.92,0,0,1-1.52,17.17,40.94,40.94,0,0,1-4.29,12,19.25,19.25,0,0,1-6.59,7.09A16,16,0,0,1,270,302.9a16.15,16.15,0,0,1-8.51-2.33,19.21,19.21,0,0,1-6.61-7.09,40.93,40.93,0,0,1-4.3-12,83.32,83.32,0,0,1-1.55-17.17v-16.7a84.92,84.92,0,0,1,1.52-17.13,40.83,40.83,0,0,1,4.29-12.05,19.45,19.45,0,0,1,6.59-7.1,16.64,16.64,0,0,1,16.95,0,19.32,19.32,0,0,1,6.61,7.1,41.1,41.1,0,0,1,4.31,12.05,83.38,83.38,0,0,1,1.54,17.13Zm10.26-97.6,3.49-7.06,3.49,7.06,7.79,1.13-5.64,5.5,1.33,7.76-7-3.66-7,3.66,1.33-7.76-5.64-5.5Zm9,180.43-3.49,7.06-3.49-7.06L295.35,346l5.64-5.5-1.33-7.76,7,3.66,7-3.66-1.33,7.76,5.64,5.5Zm4.25-57.28,29.29-71.43,6.47,5L320.84,294.8Zm44.82,1.54a19,19,0,0,1-2.47,6,12.9,12.9,0,0,1-4.14,4.05,12.13,12.13,0,0,1-11.72,0,13.19,13.19,0,0,1-4.2-4.05,18.62,18.62,0,0,1-2.53-6,30.11,30.11,0,0,1-.85-7.32v-4.83a30.19,30.19,0,0,1,.85-7.28,19.19,19.19,0,0,1,2.51-6,12.79,12.79,0,0,1,4.18-4,11,11,0,0,1,5.81-1.51,11.3,11.3,0,0,1,5.91,1.51,12.6,12.6,0,0,1,4.18,4,19.15,19.15,0,0,1,2.47,6,31.23,31.23,0,0,1,.83,7.28v4.83A31.14,31.14,0,0,1,359.19,291.38ZM350,274.05a4.7,4.7,0,0,0-1.41-1.63,3.49,3.49,0,0,0-3.91,0,4.68,4.68,0,0,0-1.4,1.63,8.31,8.31,0,0,0-.82,2.39,14.19,14.19,0,0,0-.27,2.79v4.83a11.25,11.25,0,0,0,.35,2.8,9,9,0,0,0,1,2.38,5.24,5.24,0,0,0,1.44,1.63,3,3,0,0,0,1.77.6,3.93,3.93,0,0,0,2.27-.6,3.84,3.84,0,0,0,1.33-1.63,7.36,7.36,0,0,0,.62-2.38,25.31,25.31,0,0,0,.15-2.8v-4.83a14.19,14.19,0,0,0-.27-2.79A8.62,8.62,0,0,0,350,274.05ZM314.8,237.77a4.61,4.61,0,0,0,1.41,1.63,3.33,3.33,0,0,0,2,.6,3.22,3.22,0,0,0,1.94-.6,4.36,4.36,0,0,0,1.34-1.63,9.68,9.68,0,0,0,.78-2.35,13.77,13.77,0,0,0,.27-2.77v-4.83a14.51,14.51,0,0,0-.27-2.85,9.32,9.32,0,0,0-.8-2.39,4.53,4.53,0,0,0-1.38-1.63,3.32,3.32,0,0,0-2-.6,3.22,3.22,0,0,0-1.94.6,4.85,4.85,0,0,0-1.38,1.63A8.62,8.62,0,0,0,314,225a14.51,14.51,0,0,0-.27,2.85v4.83a13.77,13.77,0,0,0,.27,2.77A8.57,8.57,0,0,0,314.8,237.77Zm-39.69-8.13a7.61,7.61,0,0,0-2.21-3.33,4.84,4.84,0,0,0-5.89,0,7.5,7.5,0,0,0-2.18,3.33,26.65,26.65,0,0,0-1.36,6.06,73.88,73.88,0,0,0-.48,9.2v22a76,76,0,0,0,.48,9.36,24.84,24.84,0,0,0,1.38,6,7.46,7.46,0,0,0,2.22,3.3,4.77,4.77,0,0,0,3,1,4.6,4.6,0,0,0,2.9-1,7.62,7.62,0,0,0,2.21-3.3,25.81,25.81,0,0,0,1.38-6,78.3,78.3,0,0,0,.47-9.36v-22a71.77,71.77,0,0,0-.49-9.2A27,27,0,0,0,275.11,229.64Zm-48.86,0a7.61,7.61,0,0,0-2.21-3.33,4.71,4.71,0,0,0-2.94-1,4.76,4.76,0,0,0-2.95,1,7.5,7.5,0,0,0-2.18,3.33,27.19,27.19,0,0,0-1.36,6.06,74.11,74.11,0,0,0-.47,9.2v22a76.25,76.25,0,0,0,.47,9.36,25.81,25.81,0,0,0,1.38,6,7.54,7.54,0,0,0,2.22,3.3,4.77,4.77,0,0,0,3,1,4.65,4.65,0,0,0,2.91-1,7.69,7.69,0,0,0,2.2-3.3,25.81,25.81,0,0,0,1.38-6,78.3,78.3,0,0,0,.47-9.36v-22a71.77,71.77,0,0,0-.49-9.2A27,27,0,0,0,226.25,229.64Zm96-4.67a9.32,9.32,0,0,0-.8-2.39,4.53,4.53,0,0,0-1.38-1.63,3.32,3.32,0,0,0-2-.6,3.22,3.22,0,0,0-1.94.6,4.85,4.85,0,0,0-1.38,1.63A8.62,8.62,0,0,0,314,225a14.51,14.51,0,0,0-.27,2.85v4.83a13.77,13.77,0,0,0,.27,2.77,8.57,8.57,0,0,0,.82,2.35,4.61,4.61,0,0,0,1.41,1.63,3.33,3.33,0,0,0,2,.6,3.22,3.22,0,0,0,1.94-.6,4.36,4.36,0,0,0,1.34-1.63,9.68,9.68,0,0,0,.78-2.35,13.77,13.77,0,0,0,.27-2.77v-4.83A14.51,14.51,0,0,0,322.26,225ZM227.65,235.7a27,27,0,0,0-1.4-6.06,7.61,7.61,0,0,0-2.21-3.33,4.71,4.71,0,0,0-2.94-1,4.76,4.76,0,0,0-2.95,1,7.5,7.5,0,0,0-2.18,3.33,27.19,27.19,0,0,0-1.36,6.06,74.11,74.11,0,0,0-.47,9.2v22a76.25,76.25,0,0,0,.47,9.36,25.81,25.81,0,0,0,1.38,6,7.54,7.54,0,0,0,2.22,3.3,4.77,4.77,0,0,0,3,1,4.65,4.65,0,0,0,2.91-1,7.69,7.69,0,0,0,2.2-3.3,25.81,25.81,0,0,0,1.38-6,78.3,78.3,0,0,0,.47-9.36v-22A71.77,71.77,0,0,0,227.65,235.7Zm48.86,0a27,27,0,0,0-1.4-6.06,7.61,7.61,0,0,0-2.21-3.33,4.84,4.84,0,0,0-5.89,0,7.5,7.5,0,0,0-2.18,3.33,26.65,26.65,0,0,0-1.36,6.06,73.88,73.88,0,0,0-.48,9.2v22a76,76,0,0,0,.48,9.36,24.84,24.84,0,0,0,1.38,6,7.46,7.46,0,0,0,2.22,3.3,4.77,4.77,0,0,0,3,1,4.6,4.6,0,0,0,2.9-1,7.62,7.62,0,0,0,2.21-3.3,25.81,25.81,0,0,0,1.38-6,78.3,78.3,0,0,0,.47-9.36v-22A71.77,71.77,0,0,0,276.51,235.7Zm74.3,40.74a8.62,8.62,0,0,0-.82-2.39,4.7,4.7,0,0,0-1.41-1.63,3.49,3.49,0,0,0-3.91,0,4.68,4.68,0,0,0-1.4,1.63,8.31,8.31,0,0,0-.82,2.39,14.19,14.19,0,0,0-.27,2.79v4.83a11.25,11.25,0,0,0,.35,2.8,9,9,0,0,0,1,2.38,5.24,5.24,0,0,0,1.44,1.63,3,3,0,0,0,1.77.6,3.93,3.93,0,0,0,2.27-.6,3.84,3.84,0,0,0,1.33-1.63,7.36,7.36,0,0,0,.62-2.38,25.31,25.31,0,0,0,.15-2.8v-4.83A14.19,14.19,0,0,0,350.81,276.44Zm0,0a8.62,8.62,0,0,0-.82-2.39,4.7,4.7,0,0,0-1.41-1.63,3.49,3.49,0,0,0-3.91,0,4.68,4.68,0,0,0-1.4,1.63,8.31,8.31,0,0,0-.82,2.39,14.19,14.19,0,0,0-.27,2.79v4.83a11.25,11.25,0,0,0,.35,2.8,9,9,0,0,0,1,2.38,5.24,5.24,0,0,0,1.44,1.63,3,3,0,0,0,1.77.6,3.93,3.93,0,0,0,2.27-.6,3.84,3.84,0,0,0,1.33-1.63,7.36,7.36,0,0,0,.62-2.38,25.31,25.31,0,0,0,.15-2.8v-4.83A14.19,14.19,0,0,0,350.81,276.44ZM322.26,225a9.32,9.32,0,0,0-.8-2.39,4.53,4.53,0,0,0-1.38-1.63,3.32,3.32,0,0,0-2-.6,3.22,3.22,0,0,0-1.94.6,4.85,4.85,0,0,0-1.38,1.63A8.62,8.62,0,0,0,314,225a14.51,14.51,0,0,0-.27,2.85v4.83a13.77,13.77,0,0,0,.27,2.77,8.57,8.57,0,0,0,.82,2.35,4.61,4.61,0,0,0,1.41,1.63,3.33,3.33,0,0,0,2,.6,3.22,3.22,0,0,0,1.94-.6,4.36,4.36,0,0,0,1.34-1.63,9.68,9.68,0,0,0,.78-2.35,13.77,13.77,0,0,0,.27-2.77v-4.83A14.51,14.51,0,0,0,322.26,225ZM276.51,235.7a27,27,0,0,0-1.4-6.06,7.61,7.61,0,0,0-2.21-3.33,4.84,4.84,0,0,0-5.89,0,7.5,7.5,0,0,0-2.18,3.33,26.65,26.65,0,0,0-1.36,6.06,73.88,73.88,0,0,0-.48,9.2v22a76,76,0,0,0,.48,9.36,24.84,24.84,0,0,0,1.38,6,7.46,7.46,0,0,0,2.22,3.3,4.77,4.77,0,0,0,3,1,4.6,4.6,0,0,0,2.9-1,7.62,7.62,0,0,0,2.21-3.3,25.81,25.81,0,0,0,1.38-6,78.3,78.3,0,0,0,.47-9.36v-22A71.77,71.77,0,0,0,276.51,235.7Zm-48.86,0a27,27,0,0,0-1.4-6.06,7.61,7.61,0,0,0-2.21-3.33,4.71,4.71,0,0,0-2.94-1,4.76,4.76,0,0,0-2.95,1,7.5,7.5,0,0,0-2.18,3.33,27.19,27.19,0,0,0-1.36,6.06,74.11,74.11,0,0,0-.47,9.2v22a76.25,76.25,0,0,0,.47,9.36,25.81,25.81,0,0,0,1.38,6,7.54,7.54,0,0,0,2.22,3.3,4.77,4.77,0,0,0,3,1,4.65,4.65,0,0,0,2.91-1,7.69,7.69,0,0,0,2.2-3.3,25.81,25.81,0,0,0,1.38-6,78.3,78.3,0,0,0,.47-9.36v-22A71.77,71.77,0,0,0,227.65,235.7ZM322.26,225a9.32,9.32,0,0,0-.8-2.39,4.53,4.53,0,0,0-1.38-1.63,3.32,3.32,0,0,0-2-.6,3.22,3.22,0,0,0-1.94.6,4.85,4.85,0,0,0-1.38,1.63A8.62,8.62,0,0,0,314,225a14.51,14.51,0,0,0-.27,2.85v4.83a13.77,13.77,0,0,0,.27,2.77,8.57,8.57,0,0,0,.82,2.35,4.61,4.61,0,0,0,1.41,1.63,3.33,3.33,0,0,0,2,.6,3.22,3.22,0,0,0,1.94-.6,4.36,4.36,0,0,0,1.34-1.63,9.68,9.68,0,0,0,.78-2.35,13.77,13.77,0,0,0,.27-2.77v-4.83A14.51,14.51,0,0,0,322.26,225ZM227.65,235.7a27,27,0,0,0-1.4-6.06,7.61,7.61,0,0,0-2.21-3.33,4.71,4.71,0,0,0-2.94-1,4.76,4.76,0,0,0-2.95,1,7.5,7.5,0,0,0-2.18,3.33,27.19,27.19,0,0,0-1.36,6.06,74.11,74.11,0,0,0-.47,9.2v22a76.25,76.25,0,0,0,.47,9.36,25.81,25.81,0,0,0,1.38,6,7.54,7.54,0,0,0,2.22,3.3,4.77,4.77,0,0,0,3,1,4.65,4.65,0,0,0,2.91-1,7.69,7.69,0,0,0,2.2-3.3,25.81,25.81,0,0,0,1.38-6,78.3,78.3,0,0,0,.47-9.36v-22A71.77,71.77,0,0,0,227.65,235.7Zm48.86,0a27,27,0,0,0-1.4-6.06,7.61,7.61,0,0,0-2.21-3.33,4.84,4.84,0,0,0-5.89,0,7.5,7.5,0,0,0-2.18,3.33,26.65,26.65,0,0,0-1.36,6.06,73.88,73.88,0,0,0-.48,9.2v22a76,76,0,0,0,.48,9.36,24.84,24.84,0,0,0,1.38,6,7.46,7.46,0,0,0,2.22,3.3,4.77,4.77,0,0,0,3,1,4.6,4.6,0,0,0,2.9-1,7.62,7.62,0,0,0,2.21-3.3,25.81,25.81,0,0,0,1.38-6,78.3,78.3,0,0,0,.47-9.36v-22A71.77,71.77,0,0,0,276.51,235.7Zm74.3,40.74a8.62,8.62,0,0,0-.82-2.39,4.7,4.7,0,0,0-1.41-1.63,3.49,3.49,0,0,0-3.91,0,4.68,4.68,0,0,0-1.4,1.63,8.31,8.31,0,0,0-.82,2.39,14.19,14.19,0,0,0-.27,2.79v4.83a11.25,11.25,0,0,0,.35,2.8,9,9,0,0,0,1,2.38,5.24,5.24,0,0,0,1.44,1.63,3,3,0,0,0,1.77.6,3.93,3.93,0,0,0,2.27-.6,3.84,3.84,0,0,0,1.33-1.63,7.36,7.36,0,0,0,.62-2.38,25.31,25.31,0,0,0,.15-2.8v-4.83A14.19,14.19,0,0,0,350.81,276.44Zm0,0a8.62,8.62,0,0,0-.82-2.39,4.7,4.7,0,0,0-1.41-1.63,3.49,3.49,0,0,0-3.91,0,4.68,4.68,0,0,0-1.4,1.63,8.31,8.31,0,0,0-.82,2.39,14.19,14.19,0,0,0-.27,2.79v4.83a11.25,11.25,0,0,0,.35,2.8,9,9,0,0,0,1,2.38,5.24,5.24,0,0,0,1.44,1.63,3,3,0,0,0,1.77.6,3.93,3.93,0,0,0,2.27-.6,3.84,3.84,0,0,0,1.33-1.63,7.36,7.36,0,0,0,.62-2.38,25.31,25.31,0,0,0,.15-2.8v-4.83A14.19,14.19,0,0,0,350.81,276.44ZM322.26,225a9.32,9.32,0,0,0-.8-2.39,4.53,4.53,0,0,0-1.38-1.63,3.32,3.32,0,0,0-2-.6,3.22,3.22,0,0,0-1.94.6,4.85,4.85,0,0,0-1.38,1.63A8.62,8.62,0,0,0,314,225a14.51,14.51,0,0,0-.27,2.85v4.83a13.77,13.77,0,0,0,.27,2.77,8.57,8.57,0,0,0,.82,2.35,4.61,4.61,0,0,0,1.41,1.63,3.33,3.33,0,0,0,2,.6,3.22,3.22,0,0,0,1.94-.6,4.36,4.36,0,0,0,1.34-1.63,9.68,9.68,0,0,0,.78-2.35,13.77,13.77,0,0,0,.27-2.77v-4.83A14.51,14.51,0,0,0,322.26,225ZM276.51,235.7a27,27,0,0,0-1.4-6.06,7.61,7.61,0,0,0-2.21-3.33,4.84,4.84,0,0,0-5.89,0,7.5,7.5,0,0,0-2.18,3.33,26.65,26.65,0,0,0-1.36,6.06,73.88,73.88,0,0,0-.48,9.2v22a76,76,0,0,0,.48,9.36,24.84,24.84,0,0,0,1.38,6,7.46,7.46,0,0,0,2.22,3.3,4.77,4.77,0,0,0,3,1,4.6,4.6,0,0,0,2.9-1,7.62,7.62,0,0,0,2.21-3.3,25.81,25.81,0,0,0,1.38-6,78.3,78.3,0,0,0,.47-9.36v-22A71.77,71.77,0,0,0,276.51,235.7Zm-48.86,0a27,27,0,0,0-1.4-6.06,7.61,7.61,0,0,0-2.21-3.33,4.71,4.71,0,0,0-2.94-1,4.76,4.76,0,0,0-2.95,1,7.5,7.5,0,0,0-2.18,3.33,27.19,27.19,0,0,0-1.36,6.06,74.11,74.11,0,0,0-.47,9.2v22a76.25,76.25,0,0,0,.47,9.36,25.81,25.81,0,0,0,1.38,6,7.54,7.54,0,0,0,2.22,3.3,4.77,4.77,0,0,0,3,1,4.65,4.65,0,0,0,2.91-1,7.69,7.69,0,0,0,2.2-3.3,25.81,25.81,0,0,0,1.38-6,78.3,78.3,0,0,0,.47-9.36v-22A71.77,71.77,0,0,0,227.65,235.7Zm0,0a27,27,0,0,0-1.4-6.06,7.61,7.61,0,0,0-2.21-3.33,4.71,4.71,0,0,0-2.94-1,4.76,4.76,0,0,0-2.95,1,7.5,7.5,0,0,0-2.18,3.33,27.19,27.19,0,0,0-1.36,6.06,74.11,74.11,0,0,0-.47,9.2v22a76.25,76.25,0,0,0,.47,9.36,25.81,25.81,0,0,0,1.38,6,7.54,7.54,0,0,0,2.22,3.3,4.77,4.77,0,0,0,3,1,4.65,4.65,0,0,0,2.91-1,7.69,7.69,0,0,0,2.2-3.3,25.81,25.81,0,0,0,1.38-6,78.3,78.3,0,0,0,.47-9.36v-22A71.77,71.77,0,0,0,227.65,235.7Zm48.86,0a27,27,0,0,0-1.4-6.06,7.61,7.61,0,0,0-2.21-3.33,4.84,4.84,0,0,0-5.89,0,7.5,7.5,0,0,0-2.18,3.33,26.65,26.65,0,0,0-1.36,6.06,73.88,73.88,0,0,0-.48,9.2v22a76,76,0,0,0,.48,9.36,24.84,24.84,0,0,0,1.38,6,7.46,7.46,0,0,0,2.22,3.3,4.77,4.77,0,0,0,3,1,4.6,4.6,0,0,0,2.9-1,7.62,7.62,0,0,0,2.21-3.3,25.81,25.81,0,0,0,1.38-6,78.3,78.3,0,0,0,.47-9.36v-22A71.77,71.77,0,0,0,276.51,235.7ZM322.26,225a9.32,9.32,0,0,0-.8-2.39,4.53,4.53,0,0,0-1.38-1.63,3.32,3.32,0,0,0-2-.6,3.22,3.22,0,0,0-1.94.6,4.85,4.85,0,0,0-1.38,1.63A8.62,8.62,0,0,0,314,225a14.51,14.51,0,0,0-.27,2.85v4.83a13.77,13.77,0,0,0,.27,2.77,8.57,8.57,0,0,0,.82,2.35,4.61,4.61,0,0,0,1.41,1.63,3.33,3.33,0,0,0,2,.6,3.22,3.22,0,0,0,1.94-.6,4.36,4.36,0,0,0,1.34-1.63,9.68,9.68,0,0,0,.78-2.35,13.77,13.77,0,0,0,.27-2.77v-4.83A14.51,14.51,0,0,0,322.26,225Zm28.55,51.47a8.62,8.62,0,0,0-.82-2.39,4.7,4.7,0,0,0-1.41-1.63,3.49,3.49,0,0,0-3.91,0,4.68,4.68,0,0,0-1.4,1.63,8.31,8.31,0,0,0-.82,2.39,14.19,14.19,0,0,0-.27,2.79v4.83a11.25,11.25,0,0,0,.35,2.8,9,9,0,0,0,1,2.38,5.24,5.24,0,0,0,1.44,1.63,3,3,0,0,0,1.77.6,3.93,3.93,0,0,0,2.27-.6,3.84,3.84,0,0,0,1.33-1.63,7.36,7.36,0,0,0,.62-2.38,25.31,25.31,0,0,0,.15-2.8v-4.83A14.19,14.19,0,0,0,350.81,276.44Zm0,0a8.62,8.62,0,0,0-.82-2.39,4.7,4.7,0,0,0-1.41-1.63,3.49,3.49,0,0,0-3.91,0,4.68,4.68,0,0,0-1.4,1.63,8.31,8.31,0,0,0-.82,2.39,14.19,14.19,0,0,0-.27,2.79v4.83a11.25,11.25,0,0,0,.35,2.8,9,9,0,0,0,1,2.38,5.24,5.24,0,0,0,1.44,1.63,3,3,0,0,0,1.77.6,3.93,3.93,0,0,0,2.27-.6,3.84,3.84,0,0,0,1.33-1.63,7.36,7.36,0,0,0,.62-2.38,25.31,25.31,0,0,0,.15-2.8v-4.83A14.19,14.19,0,0,0,350.81,276.44ZM322.26,225a9.32,9.32,0,0,0-.8-2.39,4.53,4.53,0,0,0-1.38-1.63,3.32,3.32,0,0,0-2-.6,3.22,3.22,0,0,0-1.94.6,4.85,4.85,0,0,0-1.38,1.63A8.62,8.62,0,0,0,314,225a14.51,14.51,0,0,0-.27,2.85v4.83a13.77,13.77,0,0,0,.27,2.77,8.57,8.57,0,0,0,.82,2.35,4.61,4.61,0,0,0,1.41,1.63,3.33,3.33,0,0,0,2,.6,3.22,3.22,0,0,0,1.94-.6,4.36,4.36,0,0,0,1.34-1.63,9.68,9.68,0,0,0,.78-2.35,13.77,13.77,0,0,0,.27-2.77v-4.83A14.51,14.51,0,0,0,322.26,225ZM276.51,235.7a27,27,0,0,0-1.4-6.06,7.61,7.61,0,0,0-2.21-3.33,4.84,4.84,0,0,0-5.89,0,7.5,7.5,0,0,0-2.18,3.33,26.65,26.65,0,0,0-1.36,6.06,73.88,73.88,0,0,0-.48,9.2v22a76,76,0,0,0,.48,9.36,24.84,24.84,0,0,0,1.38,6,7.46,7.46,0,0,0,2.22,3.3,4.77,4.77,0,0,0,3,1,4.6,4.6,0,0,0,2.9-1,7.62,7.62,0,0,0,2.21-3.3,25.81,25.81,0,0,0,1.38-6,78.3,78.3,0,0,0,.47-9.36v-22A71.77,71.77,0,0,0,276.51,235.7Zm-48.86,0a27,27,0,0,0-1.4-6.06,7.61,7.61,0,0,0-2.21-3.33,4.71,4.71,0,0,0-2.94-1,4.76,4.76,0,0,0-2.95,1,7.5,7.5,0,0,0-2.18,3.33,27.19,27.19,0,0,0-1.36,6.06,74.11,74.11,0,0,0-.47,9.2v22a76.25,76.25,0,0,0,.47,9.36,25.81,25.81,0,0,0,1.38,6,7.54,7.54,0,0,0,2.22,3.3,4.77,4.77,0,0,0,3,1,4.65,4.65,0,0,0,2.91-1,7.69,7.69,0,0,0,2.2-3.3,25.81,25.81,0,0,0,1.38-6,78.3,78.3,0,0,0,.47-9.36v-22A71.77,71.77,0,0,0,227.65,235.7Zm0,0a27,27,0,0,0-1.4-6.06,7.61,7.61,0,0,0-2.21-3.33,4.71,4.71,0,0,0-2.94-1,4.76,4.76,0,0,0-2.95,1,7.5,7.5,0,0,0-2.18,3.33,27.19,27.19,0,0,0-1.36,6.06,74.11,74.11,0,0,0-.47,9.2v22a76.25,76.25,0,0,0,.47,9.36,25.81,25.81,0,0,0,1.38,6,7.54,7.54,0,0,0,2.22,3.3,4.77,4.77,0,0,0,3,1,4.65,4.65,0,0,0,2.91-1,7.69,7.69,0,0,0,2.2-3.3,25.81,25.81,0,0,0,1.38-6,78.3,78.3,0,0,0,.47-9.36v-22A71.77,71.77,0,0,0,227.65,235.7Zm48.86,0a27,27,0,0,0-1.4-6.06,7.61,7.61,0,0,0-2.21-3.33,4.84,4.84,0,0,0-5.89,0,7.5,7.5,0,0,0-2.18,3.33,26.65,26.65,0,0,0-1.36,6.06,73.88,73.88,0,0,0-.48,9.2v22a76,76,0,0,0,.48,9.36,24.84,24.84,0,0,0,1.38,6,7.46,7.46,0,0,0,2.22,3.3,4.77,4.77,0,0,0,3,1,4.6,4.6,0,0,0,2.9-1,7.62,7.62,0,0,0,2.21-3.3,25.81,25.81,0,0,0,1.38-6,78.3,78.3,0,0,0,.47-9.36v-22A71.77,71.77,0,0,0,276.51,235.7ZM322.26,225a9.32,9.32,0,0,0-.8-2.39,4.53,4.53,0,0,0-1.38-1.63,3.32,3.32,0,0,0-2-.6,3.22,3.22,0,0,0-1.94.6,4.85,4.85,0,0,0-1.38,1.63A8.62,8.62,0,0,0,314,225a14.51,14.51,0,0,0-.27,2.85v4.83a13.77,13.77,0,0,0,.27,2.77,8.57,8.57,0,0,0,.82,2.35,4.61,4.61,0,0,0,1.41,1.63,3.33,3.33,0,0,0,2,.6,3.22,3.22,0,0,0,1.94-.6,4.36,4.36,0,0,0,1.34-1.63,9.68,9.68,0,0,0,.78-2.35,13.77,13.77,0,0,0,.27-2.77v-4.83A14.51,14.51,0,0,0,322.26,225Zm0,0a9.32,9.32,0,0,0-.8-2.39,4.53,4.53,0,0,0-1.38-1.63,3.32,3.32,0,0,0-2-.6,3.22,3.22,0,0,0-1.94.6,4.85,4.85,0,0,0-1.38,1.63A8.62,8.62,0,0,0,314,225a14.51,14.51,0,0,0-.27,2.85v4.83a13.77,13.77,0,0,0,.27,2.77,8.57,8.57,0,0,0,.82,2.35,4.61,4.61,0,0,0,1.41,1.63,3.33,3.33,0,0,0,2,.6,3.22,3.22,0,0,0,1.94-.6,4.36,4.36,0,0,0,1.34-1.63,9.68,9.68,0,0,0,.78-2.35,13.77,13.77,0,0,0,.27-2.77v-4.83A14.51,14.51,0,0,0,322.26,225ZM276.51,235.7a27,27,0,0,0-1.4-6.06,7.61,7.61,0,0,0-2.21-3.33,4.84,4.84,0,0,0-5.89,0,7.5,7.5,0,0,0-2.18,3.33,26.65,26.65,0,0,0-1.36,6.06,73.88,73.88,0,0,0-.48,9.2v22a76,76,0,0,0,.48,9.36,24.84,24.84,0,0,0,1.38,6,7.46,7.46,0,0,0,2.22,3.3,4.77,4.77,0,0,0,3,1,4.6,4.6,0,0,0,2.9-1,7.62,7.62,0,0,0,2.21-3.3,25.81,25.81,0,0,0,1.38-6,78.3,78.3,0,0,0,.47-9.36v-22A71.77,71.77,0,0,0,276.51,235.7Zm-48.86,0a27,27,0,0,0-1.4-6.06,7.61,7.61,0,0,0-2.21-3.33,4.71,4.71,0,0,0-2.94-1,4.76,4.76,0,0,0-2.95,1,7.5,7.5,0,0,0-2.18,3.33,27.19,27.19,0,0,0-1.36,6.06,74.11,74.11,0,0,0-.47,9.2v22a76.25,76.25,0,0,0,.47,9.36,25.81,25.81,0,0,0,1.38,6,7.54,7.54,0,0,0,2.22,3.3,4.77,4.77,0,0,0,3,1,4.65,4.65,0,0,0,2.91-1,7.69,7.69,0,0,0,2.2-3.3,25.81,25.81,0,0,0,1.38-6,78.3,78.3,0,0,0,.47-9.36v-22A71.77,71.77,0,0,0,227.65,235.7Zm0,0a27,27,0,0,0-1.4-6.06,7.61,7.61,0,0,0-2.21-3.33,4.71,4.71,0,0,0-2.94-1,4.76,4.76,0,0,0-2.95,1,7.5,7.5,0,0,0-2.18,3.33,27.19,27.19,0,0,0-1.36,6.06,74.11,74.11,0,0,0-.47,9.2v22a76.25,76.25,0,0,0,.47,9.36,25.81,25.81,0,0,0,1.38,6,7.54,7.54,0,0,0,2.22,3.3,4.77,4.77,0,0,0,3,1,4.65,4.65,0,0,0,2.91-1,7.69,7.69,0,0,0,2.2-3.3,25.81,25.81,0,0,0,1.38-6,78.3,78.3,0,0,0,.47-9.36v-22A71.77,71.77,0,0,0,227.65,235.7Zm0,0a27,27,0,0,0-1.4-6.06,7.61,7.61,0,0,0-2.21-3.33,4.71,4.71,0,0,0-2.94-1,4.76,4.76,0,0,0-2.95,1,7.5,7.5,0,0,0-2.18,3.33,27.19,27.19,0,0,0-1.36,6.06,74.11,74.11,0,0,0-.47,9.2v22a76.25,76.25,0,0,0,.47,9.36,25.81,25.81,0,0,0,1.38,6,7.54,7.54,0,0,0,2.22,3.3,4.77,4.77,0,0,0,3,1,4.65,4.65,0,0,0,2.91-1,7.69,7.69,0,0,0,2.2-3.3,25.81,25.81,0,0,0,1.38-6,78.3,78.3,0,0,0,.47-9.36v-22A71.77,71.77,0,0,0,227.65,235.7Z"/><path class="cls-2" d="M130.38,143a167.2,167.2,0,0,1,19.23,5.79,190.17,190.17,0,0,1-7.73-18.54c3.42-3.42,5.17-5.06,8.77-8.18l17.26,20c-2.31,2-3.45,3.05-5.67,5.2L158,142.82c-3.28-3.86-4.9-5.8-8.14-9.69a178.57,178.57,0,0,0,7.49,19.15c-1.41,1.5-2.11,2.27-3.47,3.84A160.75,160.75,0,0,0,134,150.69c4.2,2.84,6.29,4.27,10.46,7.15l4.83,3.83c-2,2.5-2.93,3.79-4.79,6.44l-21.6-15.18C125.75,148.81,127.26,146.82,130.38,143Z"/><path class="cls-2" d="M187.48,113.26a13.85,13.85,0,0,1,1.67,5.29,12.72,12.72,0,0,1-.51,5,13.71,13.71,0,0,1-2.39,4.42,17.68,17.68,0,0,1-4.1,3.69,18.57,18.57,0,0,1-5.05,2.43,14,14,0,0,1-5.06.57,12.55,12.55,0,0,1-4.85-1.4,13.55,13.55,0,0,1-4.27-3.54l-.67-.83a12.47,12.47,0,0,1-2.56-4.94,10.89,10.89,0,0,1,0-5.23,14.11,14.11,0,0,1,2.5-5.13,19.81,19.81,0,0,1,4.85-4.48,19.14,19.14,0,0,1,5.92-2.72,13.57,13.57,0,0,1,5.62-.32,11.1,11.1,0,0,1,4.8,2,12.43,12.43,0,0,1,3.58,4.25C187.18,112.69,187.28,112.88,187.48,113.26Zm-7.71,3.13c-1.36-2.24-2.89-3.65-4.6-4.18a7.13,7.13,0,0,0-8.43,5.64c-.13,1.76.6,3.7,2.15,5.82l.65.9a9.89,9.89,0,0,0,4.81,3.89,5.72,5.72,0,0,0,5-1,5.61,5.61,0,0,0,2.71-4.22,9.83,9.83,0,0,0-1.75-6Z"/><path class="cls-2" d="M220.45,113.33c-2.78.82-4.16,1.26-6.9,2.23a130,130,0,0,0-16.66-11.09c2.66,6,4,9,6.64,15-2.69,1.18-4,1.81-6.66,3.14-4.76-9.44-7.14-14.15-11.91-23.59,3.13-1.57,4.71-2.32,7.9-3.72a135.91,135.91,0,0,1,17.34,10.82c-2.2-6.2-3.3-9.3-5.49-15.49,3.25-1.15,4.9-1.68,8.2-2.65C215.93,98.14,217.44,103.2,220.45,113.33Z"/><path class="cls-2" d="M241.81,97.48c-4.88.61-7.31,1-12.13,2,.51,2.46.77,3.7,1.29,6.16a123.07,123.07,0,0,1,13.76-2.18l.55,4.86a120.17,120.17,0,0,0-20.39,3.77c-2.69-10.22-4-15.33-6.72-25.54a142,142,0,0,1,24.2-4.47l.55,4.89a137.64,137.64,0,0,0-15.35,2.43c.45,2.18.68,3.27,1.14,5.45,5-1,7.48-1.45,12.51-2.08C241.46,94.66,241.57,95.6,241.81,97.48Z"/><path class="cls-2" d="M259,92.53c2.38-4.62,3.66-6.91,6.39-11.43,3.7.09,5.56.19,9.25.48A145.11,145.11,0,0,0,263,98l-.1,9.48c-2.94,0-4.41,0-7.35.11-.15-3.79-.22-5.69-.38-9.48A144.14,144.14,0,0,0,243.06,82c3.66-.39,5.5-.54,9.19-.73C255.12,85.73,256.46,88,259,92.53Z"/><path class="cls-2" d="M285.15,109.45c1.77-10.42,2.66-15.62,4.43-26,5.05.84,7.57,1.36,12.56,2.59A29.54,29.54,0,0,1,307.75,88a14.41,14.41,0,0,1,3.84,2.56,6.71,6.71,0,0,1,1.9,3,5.52,5.52,0,0,1-.14,3.35,6.31,6.31,0,0,1-.81,1.57,5.12,5.12,0,0,1-1.29,1.25,5.94,5.94,0,0,1-1.8.81,8.17,8.17,0,0,1-2.36.28,8.27,8.27,0,0,1,2.11,1.6,5.47,5.47,0,0,1,1.14,1.78,4.65,4.65,0,0,1,.33,1.85,5.71,5.71,0,0,1-.32,1.78,6.79,6.79,0,0,1-4.67,4.63c-2.25.65-5.13.44-8.76-.49A118.91,118.91,0,0,0,285.15,109.45ZM295.63,95.8c1.64.36,2.46.55,4.09,1a7.61,7.61,0,0,0,3.85.21,2.48,2.48,0,0,0,1.69-1.81,2.53,2.53,0,0,0-.56-2.64A8,8,0,0,0,301,90.78c-1.59-.39-2.39-.58-4-.93Zm-.91,4.07c-.55,2.47-.82,3.71-1.37,6.18,1.92.42,2.88.65,4.79,1.14a6.92,6.92,0,0,0,1.94.26,3.85,3.85,0,0,0,1.44-.27,2.56,2.56,0,0,0,1-.71,3,3,0,0,0,.56-1.07,4,4,0,0,0,.17-1.38,2.42,2.42,0,0,0-.4-1.2,3.44,3.44,0,0,0-1.05-1,6.71,6.71,0,0,0-1.77-.71C297.9,100.59,296.84,100.34,294.72,99.87Z"/><path class="cls-2" d="M329.69,119.2c-3.72-1.93-5.61-2.83-9.43-4.49-1.46,1.52-2.17,2.29-3.59,3.84-2.89-1.21-4.35-1.78-7.29-2.82a183.28,183.28,0,0,1,21.17-20c3,1.33,4.47,2,7.4,3.53a188.85,188.85,0,0,1-2.05,29.09c-2.73-1.67-4.12-2.47-6.92-4C329.29,122.34,329.43,121.3,329.69,119.2ZM323.94,111c2.56,1.15,3.83,1.75,6.34,3,.4-3.9.56-5.87.79-9.82C328.15,106.83,326.73,108.19,323.94,111Z"/><path class="cls-2" d="M363.58,138.15a8.41,8.41,0,0,1-3.37,2,9.77,9.77,0,0,1-4,.39,14.69,14.69,0,0,1-4.36-1.19,22.11,22.11,0,0,1-4.55-2.73,18.47,18.47,0,0,1-4-4,12.76,12.76,0,0,1-2-4.47,11.43,11.43,0,0,1-.05-4.84,14.82,14.82,0,0,1,2.05-5l.75-1.22a13,13,0,0,1,3.72-4,10.61,10.61,0,0,1,4.75-1.77,13.07,13.07,0,0,1,5.45.6,18.85,18.85,0,0,1,5.69,3,22.66,22.66,0,0,1,4.61,4.56,14.39,14.39,0,0,1,2.33,4.58,9.53,9.53,0,0,1,.25,4.25,8.8,8.8,0,0,1-1.58,3.69c-2.52-2.32-3.81-3.44-6.43-5.61a5.82,5.82,0,0,0,.93-1.77,3.37,3.37,0,0,0,0-1.81,5.44,5.44,0,0,0-1-1.89,11.75,11.75,0,0,0-2.14-2,7.59,7.59,0,0,0-2.5-1.32,4.36,4.36,0,0,0-2.4,0,5.89,5.89,0,0,0-2.34,1.33,14.61,14.61,0,0,0-2.37,2.74l-.84,1.2a17.61,17.61,0,0,0-1.8,3.13,6.54,6.54,0,0,0-.59,2.57,4,4,0,0,0,.63,2.18,8.12,8.12,0,0,0,1.91,2,7.34,7.34,0,0,0,3.89,1.74,4,4,0,0,0,3.27-1.58C360,134.89,361.19,136,363.58,138.15Z"/><path class="cls-2" d="M375.12,148.64c-1.77-.27-2.65-.39-4.4-.59l-5.09,4.75c-2.13-2.3-3.21-3.41-5.43-5.55l18.3-19c2.63,2.54,3.92,3.86,6.44,6.58l-8.52,7.94c1.8,0,2.7,0,4.52,0,4.57.14,6.89.31,11.59.84,2.92,3.62,4.34,5.5,7.07,9.38a118.4,118.4,0,0,0-17.05-3.14A136.24,136.24,0,0,1,378,168.11c-2.21-3.14-3.35-4.66-5.71-7.6C373.59,155.85,374.16,153.47,375.12,148.64Z"/><path class="cls-2" d="M142.12,385.67a12.19,12.19,0,0,1-2.61-.59,19.36,19.36,0,0,1-3.54-1.59,30,30,0,0,1-4.24-2.89,38.32,38.32,0,0,1-4.68-4.53,27,27,0,0,1-4.5-6.87,17.26,17.26,0,0,1-1.58-6.66,12.05,12.05,0,0,1,1.36-5.89,13.53,13.53,0,0,1,4.3-4.7l1.37-1a15,15,0,0,1,5.84-2.55,14.17,14.17,0,0,1,5.77.11,16.45,16.45,0,0,1,5.4,2.34,23.43,23.43,0,0,1,4.87,4.3,30.4,30.4,0,0,1,3.88,5.37,15.1,15.1,0,0,1,1.7,4.75,10,10,0,0,1-.21,4.31,12.56,12.56,0,0,1-1.89,3.9c-2.63-2.45-3.92-3.73-6.43-6.36a7.72,7.72,0,0,0,1-1.85,4.35,4.35,0,0,0,.23-1.9,5.61,5.61,0,0,0-.64-2,11.23,11.23,0,0,0-1.6-2.27,8.55,8.55,0,0,0-2.41-1.94,6.29,6.29,0,0,0-2.79-.73,8.17,8.17,0,0,0-3.14.61,13.21,13.21,0,0,0-3.43,2.06c-.54.42-.81.64-1.34,1.07-2.34,1.87-3.66,3.85-3.89,5.95s.69,4.4,2.8,6.78a18.06,18.06,0,0,0,1.58,1.58,12.22,12.22,0,0,0,1.38,1.06,6.77,6.77,0,0,0,1.15.63,6,6,0,0,0,.89.31l3.38-3.23c-1.92-2-2.86-3.05-4.71-5.16l3.73-3.29a136,136,0,0,0,11.43,11.81Z"/><path class="cls-2" d="M186.47,386c-3.95,6.8-5.92,10.2-9.88,17a9.05,9.05,0,0,1-3.34,3.46,9.37,9.37,0,0,1-4.57,1.21,15.2,15.2,0,0,1-5.52-1.05,28.57,28.57,0,0,1-11.16-8,15.81,15.81,0,0,1-2.87-5,9.77,9.77,0,0,1-.43-4.81,8.83,8.83,0,0,1,2.15-4.32c5.15-5.94,7.73-8.91,12.89-14.84,2.63,2.3,4,3.41,6.72,5.53l-12,15.57a4.69,4.69,0,0,0-1.16,4.19,7.37,7.37,0,0,0,3,3.78,7.21,7.21,0,0,0,4.55,1.65,4.78,4.78,0,0,0,3.53-2.49l10.84-16.4C182.1,383.38,183.55,384.27,186.47,386Z"/><path class="cls-2" d="M199.92,419.34c-5-1.87-7.45-2.91-12.3-5.17-1.8,1.64-2.72,2.45-4.57,4.05-3.88-1.88-5.8-2.89-9.59-5a313.15,313.15,0,0,0,26.19-20.45c2.87,1.3,4.32,1.91,7.25,3.05a322.52,322.52,0,0,0,3.52,33c-4.12-1.21-6.16-1.87-10.21-3.33C200.06,423,200,421.78,199.92,419.34Zm-7.86-9.3c3.07,1.38,4.62,2,7.74,3.26,0-4.5,0-6.74.17-11.2C196.89,405.34,195.31,406.93,192.06,410Z"/><path class="cls-2" d="M230.24,422.6c-2-.37-3-.57-5-1-.91,4.15-1.36,6.23-2.27,10.38-3.89-.85-5.83-1.32-9.68-2.38q4-14.49,8.06-29a125.07,125.07,0,0,0,13.19,3,26.19,26.19,0,0,1,5.21,1.44,13.8,13.8,0,0,1,3.88,2.25,8.41,8.41,0,0,1,2.34,3.1,8,8,0,0,1,.57,4,9.36,9.36,0,0,1-.74,3,7.17,7.17,0,0,1-1.55,2.24A8.46,8.46,0,0,1,242,421.2a14.32,14.32,0,0,1-2.88,1c2.53,5.23,3.92,7.82,6.93,12.94l0,.31c-4.24-.36-6.35-.6-10.57-1.2C233.19,429.6,232.15,427.27,230.24,422.6Zm-3.77-6.47c2.24.49,3.36.71,5.61,1.11a5.63,5.63,0,0,0,4-.43,3.67,3.67,0,0,0,1.73-2.8,3.89,3.89,0,0,0-.79-3.2,5.64,5.64,0,0,0-3.45-1.7c-2.13-.38-3.2-.59-5.32-1.05Z"/><path class="cls-2" d="M273.56,430c-5.25.37-7.89.45-13.16.43-.93,2.24-1.41,3.36-2.4,5.59-4.24-.08-6.36-.18-10.59-.5A322.6,322.6,0,0,0,262.28,406c3.11,0,4.66-.07,7.76-.25A319.2,319.2,0,0,0,287,434.22c-4.23.61-6.35.85-10.6,1.2C275.21,433.27,274.65,432.18,273.56,430Zm-10.91-5.17c3.32,0,5-.09,8.29-.28-1.9-4.07-2.8-6.11-4.5-10.23C265,418.55,264.27,420.65,262.65,424.84Z"/><path class="cls-2" d="M323.31,425.05c-3.74,1.37-5.63,2-9.43,3.17a142.54,142.54,0,0,1-18.21-14.58l4,18.28c-3.89.85-5.85,1.22-9.77,1.85l-4.83-29.69c3.26-.52,4.89-.83,8.13-1.54a136.21,136.21,0,0,0,17.28,14.82c-2.21-7.15-3.31-10.73-5.51-17.89,3.17-1,4.74-1.5,7.86-2.64Q318.1,410.93,323.31,425.05Z"/><path class="cls-2" d="M344.51,387.33c-3.7,2.37-5.59,3.48-9.42,5.57l11.72,21.51c-3.56,1.94-5.37,2.85-9,4.58-4.19-8.86-6.29-13.29-10.49-22.14-3.85,1.82-5.8,2.65-9.75,4.19-.81-2.08-1.22-3.13-2-5.21a136.3,136.3,0,0,0,26-13.22C342.69,384.5,343.3,385.44,344.51,387.33Z"/><path class="cls-2" d="M373.61,379.59A137.91,137.91,0,0,1,362,389.41l4.35,5.7a142.63,142.63,0,0,0,14.28-12.24l3.84,4a161.2,161.2,0,0,1-23.1,18.66l-16.84-24.94a122.25,122.25,0,0,0,19.24-15.55l3.87,4.05a127.25,127.25,0,0,1-12.76,10.94l3.85,5.05a132.38,132.38,0,0,0,11.27-9.5Z"/><path class="cls-2" d="M395.26,355.21a142.42,142.42,0,0,1-10,12.42l5.36,4.76A149.49,149.49,0,0,0,402.83,357l4.56,3.2a167,167,0,0,1-19.88,23.73L366.26,362.6a126.14,126.14,0,0,0,16.56-19.78L387.4,346a132,132,0,0,1-10.87,13.79c1.89,1.69,2.84,2.53,4.74,4.21a137.82,137.82,0,0,0,9.64-12Z"/><polygon class="cls-2" points="97.75 238.21 104.01 250.9 118.02 252.94 107.88 262.82 110.28 276.77 97.75 270.18 85.22 276.77 87.61 262.82 77.48 252.94 91.48 250.9 97.75 238.21"/><polygon class="cls-2" points="425.08 238.21 431.35 250.9 445.35 252.94 435.22 262.82 437.61 276.77 425.08 270.18 412.56 276.77 414.95 262.82 404.81 252.94 418.82 250.9 425.08 238.21"/></g></g></svg>