<svg xmlns="http://www.w3.org/2000/svg" viewBox="0 0 500.06 579.97"><defs><style>.cls-1{fill:#4a4647;}.cls-2{fill:#ededed;}.cls-3{fill:#d3d3d3;}.cls-4{fill:#fff;}.cls-5{fill:none;stroke:#4a4647;stroke-miterlimit:10;}.cls-6{fill:#cde3c0;}.cls-7{fill:#fcc670;}.cls-8{fill:#f7b33c;}.cls-9{fill:#5b5955;}.cls-10{fill:#fff6de;}.cls-11{fill:#c6865c;}.cls-12{fill:#874a21;}</style></defs><title>Element 1</title><g id="Ebene_2" data-name="Ebene 2"><g id="Objects"><rect class="cls-1" x="13.15" width="449.42" height="535.98" rx="28.85" ry="28.85"/><rect class="cls-2" x="427.36" y="31.05" width="8.12" height="474.28"/><rect class="cls-3" x="435.47" y="35.55" width="8.12" height="467"/><rect class="cls-4" x="30.07" y="26.54" width="397.27" height="480.68"/><path class="cls-1" d="M62.05,61.71a9.62,9.62,0,1,1-9.62-9.62A9.61,9.61,0,0,1,62.05,61.71Z"/><circle class="cls-1" cx="52.44" cy="128.78" r="9.62"/><path class="cls-1" d="M62.05,195.86a9.62,9.62,0,1,1-9.62-9.61A9.62,9.62,0,0,1,62.05,195.86Z"/><circle class="cls-1" cx="52.44" cy="262.94" r="9.62"/><circle class="cls-1" cx="52.44" cy="330.02" r="9.62" transform="translate(-278.69 374.91) rotate(-88.69)"/><circle class="cls-1" cx="52.44" cy="397.09" r="9.62" transform="translate(-9.95 1.44) rotate(-1.44)"/><circle class="cls-1" cx="52.44" cy="464.17" r="9.62" transform="translate(-412.81 506) rotate(-88.69)"/><rect class="cls-5" x="378.14" y="43.07" width="27.74" height="27.74"/><rect class="cls-5" x="342.28" y="43.07" width="27.74" height="27.74"/><rect class="cls-5" x="306.42" y="43.07" width="27.74" height="27.74"/><line class="cls-1" x1="295.65" y1="56.94" x2="81.84" y2="56.94"/><path class="cls-1" d="M295.65,57.5H81.84a.56.56,0,0,1,0-1.11H295.65a.56.56,0,1,1,0,1.11Z"/><path class="cls-6" d="M50.49,67.81H6.1a6.11,6.11,0,0,1,0-12.21H50.49a6.11,6.11,0,1,1,0,12.21Z"/><path class="cls-6" d="M50.49,134.77H6.1a6.11,6.11,0,0,1,0-12.21H50.49a6.11,6.11,0,1,1,0,12.21Z"/><path class="cls-6" d="M50.49,201.9H6.1a6.1,6.1,0,0,1,0-12.2H50.49a6.1,6.1,0,1,1,0,12.2Z"/><path class="cls-6" d="M50.49,269H6.1a6.1,6.1,0,0,1,0-12.2H50.49a6.1,6.1,0,1,1,0,12.2Z"/><path class="cls-6" d="M50.49,336.18H6.1a6.1,6.1,0,0,1,0-12.2H50.49a6.1,6.1,0,1,1,0,12.2Z"/><path class="cls-6" d="M50.49,403.88H6.1a6.11,6.11,0,0,1,0-12.21H50.49a6.11,6.11,0,1,1,0,12.21Z"/><path class="cls-6" d="M50.49,470.18H6.1a6.1,6.1,0,0,1,0-12.2H50.49a6.1,6.1,0,1,1,0,12.2Z"/><rect class="cls-7" x="255.43" y="368.87" width="347.72" height="14.67" transform="translate(-63.06 665.03) rotate(-71.63)"/><rect class="cls-8" x="238.42" y="359.96" width="347.73" height="21.19" transform="translate(-69.34 645.02) rotate(-71.63)"/><polygon class="cls-9" points="350.74 579.98 361.33 567.4 349.86 563.59 350.74 579.98"/><polygon class="cls-10" points="348.19 532.48 349.86 563.59 361.33 567.4 381.45 543.52 348.19 532.48"/><rect class="cls-11" x="471.5" y="187.17" width="6.93" height="35.86" transform="matrix(0.32, -0.95, 0.95, 0.32, 130.59, 591.19)"/><rect class="cls-12" x="468.21" y="173.57" width="22.55" height="35.86" transform="translate(146.61 586.18) rotate(-71.63)"/></g></g></svg>