<svg xmlns="http://www.w3.org/2000/svg" viewBox="0 0 772.21 221.13"><defs><style>.cls-1{fill:#00ff01;}.cls-2{fill:#1a1a1a;}.cls-3{fill:#fff;}.cls-4{fill:#4a4a4a;}</style></defs><title>Element 1</title><g id="Ebene_2" data-name="Ebene 2"><g id="Layer_1" data-name="Layer 1"><path class="cls-1" d="M772.21,138A938.22,938.22,0,0,1,0,138V0H772.21Z"/><path class="cls-2" d="M386.1,210.26A921.22,921.22,0,0,1,10.87,131V10.87H761.34V131A921.23,921.23,0,0,1,386.1,210.26Z"/><path class="cls-3" d="M105.84,32.9,38.3,32.83v84.6l1.28.58c4.69,2.12,9.49,4.23,14.27,6.28l3,1.3.22-30.31c15.42,4.22,31.15,8.19,46.8,11.78,5.15,1.21,9.62-.29,13.27-4.45,3.48-4,5.31-9.24,5.46-15.7l.68-30.16a27.15,27.15,0,0,0-4.66-16.62C115.27,35.33,111,32.9,105.84,32.9ZM57.39,53.39c15.38,1.18,31,2.29,46.6,3.31L103.44,83C88,80.38,72.5,77.53,57.23,74.51Zm46,31.06,2.17,0-2.18,0Z"/><path class="cls-3" d="M144.48,130.57l2.35-98H127.61l-2.77,118.47,1.55.5c26.52,8.6,53.77,16,81,21.87L210,174l.65-29.5-1.84-.32C187.29,140.36,165.66,135.79,144.48,130.57Z"/><path class="cls-3" d="M254.65,42c-3.32,5.71-5.07,12.69-5.22,20.75l-1.62,88.57a45.24,45.24,0,0,0,4.49,21.47c3.33,6.58,7.62,10.29,12.74,11,22,3.2,44.44,5.55,66.65,7L334,191l.26-32.55-2.08-.11c-21.61-1.15-43.46-3-65-5.54l1.47-88.7c21.3.57,42.86,1,64.1,1.24l2.18,0,.26-32.55H267.77C262.63,32.81,258.21,35.92,254.65,42Z"/><path class="cls-3" d="M423,42.66c-3.51-6.53-7.89-9.84-13-9.84H360.19c-5.2,0-9.6,3.31-13.07,9.85-3.24,6.08-4.9,13.52-5,22.11l-.58,94.77c-.05,8.62,1.56,16.14,4.78,22.34,3.46,6.67,7.89,10.14,13.16,10.3,8.83.28,17.72.42,26.61.42,8.18,0,16.36-.11,24.48-.35,5.2-.15,9.61-3.61,13.11-10.27,3.27-6.21,4.9-13.74,4.85-22.36L428,64.8C428,56.21,426.28,48.76,423,42.66ZM409,159.52c-15.9.35-32,.34-47.87-.06l.37-93.86c15.65.09,31.5.09,47.16,0Z"/><path class="cls-3" d="M516.82,42c-3.6-6.12-8-9.23-13.17-9.23H436.09l1.22,158.24,2.29-.15c22.24-1.41,44.71-3.74,66.76-6.92,5.12-.74,9.43-4.46,12.8-11a45,45,0,0,0,4.56-21.49l-1.61-88.65C522,54.75,520.18,47.76,516.82,42ZM504.2,152.89c-15.78,1.85-31.8,3.34-47.67,4.44l-.9-92.21c15.65-.25,31.49-.59,47.11-1Z"/><path class="cls-3" d="M529.94,32.8l2.87,147,2.51-.46c5-.9,10-1.85,15.06-2.85l1.78-.35-3-143.29Z"/><path class="cls-3" d="M620.76,32.77l2,83C607.49,92.37,591.44,64.87,575,33.94l-.61-1.15H554.62L557.71,175l2.56-.54q7.51-1.57,15-3.31l1.72-.4L574.9,79.47c16.57,29.68,32.7,55.77,48,77.63l.9,1.28,1.5-.44c5.32-1.58,10.73-3.24,16.09-4.94l1.55-.5L640.1,32.77Z"/><path class="cls-3" d="M714.76,61l2.4-.28Q724.59,59.9,732,59l1.91-.22V50.56A16.84,16.84,0,0,0,728.65,38,17.59,17.59,0,0,0,716,32.73l-49.69,0h0c-5.13,0-9.41,2.41-12.73,7.14-3.21,4.56-4.76,10.18-4.61,16.7l1.56,68.71c.15,6.62,2,11.78,5.44,15.35a11.67,11.67,0,0,0,8.56,3.83,14.17,14.17,0,0,0,4.74-.88c16.22-5.79,32.47-12.16,48.28-18.93a27.11,27.11,0,0,0,11.62-10.12c3.22-4.78,4.79-9.42,4.79-14.19V67.53l-2.58.5c-10.83,2.07-21.84,4.07-32.74,6l-1.83.31.31,22,2.65-.65q7.66-1.89,15.28-3.86l.1,13c-15,5.2-30.38,10.1-45.68,14.58L668.1,56.56c15.49-1,31.16-2.11,46.61-3.28Z"/><path class="cls-4" d="M44.83,113.22V95.64h5.72l-.14,20Q47.61,114.46,44.83,113.22Zm62.36-12.28a7.5,7.5,0,0,1-1.82-.23q-10.58-2.42-21.15-5.07h29.85a13.54,13.54,0,0,1-1.81,2.66C110.18,100.67,108.37,100.94,107.19,100.94Z"/><path class="cls-4" d="M203.62,165.93c-24.26-5.43-48.49-12-72.14-19.57l1.18-50.72h6.14l-1,40,3.38.84c20.66,5.12,41.75,9.64,62.76,13.45Z"/><path class="cls-4" d="M327.51,184c-20.52-1.44-41.2-3.67-61.53-6.62-2.9-.43-5.54-3-7.86-7.53a38.38,38.38,0,0,1-3.79-18.41l1-55.84h6.28l-.95,57.59c-.07,3.69,2.26,5.63,4.6,5.91,20.64,2.45,41.6,4.3,62.39,5.48Z"/><path class="cls-4" d="M386.12,186.09c-8.76,0-17.64-.14-26.39-.41-2.74-.09-5.29-2.37-7.59-6.79-2.72-5.26-4.08-11.75-4-19.3l.39-63.95h6.32l-.26,64.41c0,4,2.6,5.84,5,5.9,8.8.23,17.72.34,26.54.34,8.1,0,16.32-.1,24.42-.29,1.85-.05,4.95-1.35,4.93-5.89l-.24-64.47h6.43l.37,64c0,7.54-1.33,14-4.09,19.29-2.33,4.42-4.86,6.7-7.53,6.78-8.06.24-16.23.35-24.3.35Z"/><path class="cls-4" d="M443.1,95.64h6.3l.62,62.57c0,3.95,2.67,5.74,5.1,5.74h.35c16.87-1.15,33.91-2.73,50.65-4.71,2.33-.27,4.67-2.2,4.61-5.91l-1-57.68h6.4l1,55.93A38.1,38.1,0,0,1,513.36,170c-2.36,4.59-5,7.13-7.93,7.55-20.37,2.94-41.09,5.15-61.65,6.57Z"/><path class="cls-4" d="M537.69,95.64H544l1.58,75.11L539.18,172Z"/><path class="cls-4" d="M562.51,95.64h6.24l1.59,69.89c-2.09.48-4.19.94-6.28,1.4Z"/><path class="cls-4" d="M626.44,150.79c-11.17-16.15-22.85-34.66-34.8-55.15h10.77c6.5,10.73,12.92,20.85,19.09,30.11l8.33,12.5-1-42.61h6.26l1.22,52.12C633,148.8,629.71,149.81,626.44,150.79Z"/><path class="cls-4" d="M707.86,91.3h-8.69l0,2.19C702.09,92.78,705,92,707.86,91.3Z"/><path class="cls-4" d="M664.45,138a5.09,5.09,0,0,1-3.85-1.85c-2.29-2.35-3.5-6-3.61-11l-.67-29.52h6.07l.54,25.64a4.9,4.9,0,0,0,4.89,5.11,5.33,5.33,0,0,0,1.47-.21c16.31-4.74,32.68-10,48.65-15.49a5.43,5.43,0,0,0,3.67-5.26l-.07-9.79h5.84v4.73c0,3.41-1.2,6.86-3.67,10.53a20.8,20.8,0,0,1-8.79,7.77c-15.69,6.72-31.8,13-47.9,18.79a7.86,7.86,0,0,1-2.57.5Z"/></g></g></svg>