<svg xmlns="http://www.w3.org/2000/svg" viewBox="0 0 309.24 192.7"><defs><style>.cls-1{fill:#e5eeec;}.cls-2{fill:#fff;}.cls-3{fill:#59637d;}.cls-4{fill:#5add2b;}</style></defs><title>Element 1</title><g id="Ebene_2" data-name="Ebene 2"><g id="Layer_1" data-name="Layer 1"><rect class="cls-1" width="309.24" height="192.7" rx="7.7" ry="7.7"/><path class="cls-2" d="M309.24,29.55V7.7a7.7,7.7,0,0,0-7.7-7.7H7.7A7.7,7.7,0,0,0,0,7.7V29.55Z"/><path class="cls-3" d="M230.16,78.46H204.6a3,3,0,0,1-3-3V49.9a3,3,0,0,1,3-3h25.56a3,3,0,0,1,3,3V75.46A3,3,0,0,1,230.16,78.46Zm-22.56-6h19.56V52.9H207.6Z"/><path class="cls-3" d="M230.16,126H204.6a3,3,0,0,1-3-3V97.39a3,3,0,0,1,3-3h25.56a3,3,0,0,1,3,3V123A3,3,0,0,1,230.16,126Zm-22.56-6h19.56V100.39H207.6Z"/><path class="cls-3" d="M230.16,173.44H204.6a3,3,0,0,1-3-3V144.88a3,3,0,0,1,3-3h25.56a3,3,0,0,1,3,3v25.56A3,3,0,0,1,230.16,173.44Zm-22.56-6h19.56V147.88H207.6Z"/><path class="cls-3" d="M181.82,59H77.88a3,3,0,0,1,0-6H181.82a3,3,0,0,1,0,6Z"/><path class="cls-3" d="M171.82,106.46H77.88a3,3,0,0,1,0-6h93.94a3,3,0,0,1,0,6Z"/><path class="cls-3" d="M151.82,154H77.88a3,3,0,0,1,0-6h73.94a3,3,0,0,1,0,6Z"/><path class="cls-3" d="M151.82,72.38H77.88a3,3,0,0,1,0-6h73.94a3,3,0,0,1,0,6Z"/><path class="cls-3" d="M181.82,119.87H77.88a3,3,0,0,1,0-6H181.82a3,3,0,0,1,0,6Z"/><path class="cls-3" d="M111.82,167.36H77.88a3,3,0,0,1,0-6h33.94a3,3,0,0,1,0,6Z"/><path class="cls-4" d="M217,70.08a4.51,4.51,0,0,1-3.18-1.31L202.76,57.69a4.5,4.5,0,1,1,6.36-6.37l7.9,7.9,22-22a4.5,4.5,0,1,1,6.36,6.37L220.2,68.77A4.51,4.51,0,0,1,217,70.08Z"/><path class="cls-4" d="M217,116.57a4.51,4.51,0,0,1-3.18-1.31l-11.08-11.08a4.5,4.5,0,0,1,6.36-6.37l7.9,7.9,22-22A4.5,4.5,0,1,1,245.42,90L220.2,115.26A4.51,4.51,0,0,1,217,116.57Z"/></g></g></svg>